<?xml version="1.0" encoding="UTF-8" standalone="no"?>
<!-- Created with Inkscape (http://www.inkscape.org/) -->

<svg
   version="1.1"
   id="svg824"
   xml:space="preserve"
   width="385.00507"
   height="373.65802"
   viewBox="0 0 385.00506 373.65801"
   sodipodi:docname="HIV-cycle.svg"
   inkscape:version="1.1 (c4e8f9e, 2021-05-24)"
   xmlns:inkscape="http://www.inkscape.org/namespaces/inkscape"
   xmlns:sodipodi="http://sodipodi.sourceforge.net/DTD/sodipodi-0.dtd"
   xmlns="http://www.w3.org/2000/svg"
   xmlns:svg="http://www.w3.org/2000/svg"><defs
     id="defs828"><marker
       style="overflow:visible"
       id="Arrow1Mend"
       refX="0"
       refY="0"
       orient="auto"
       inkscape:stockid="Arrow1Mend"
       inkscape:isstock="true"><path
         transform="matrix(-0.4,0,0,-0.4,-4,0)"
         style="fill:context-stroke;fill-rule:evenodd;stroke:context-stroke;stroke-width:1pt"
         d="M 0,0 5,-5 -12.5,0 5,5 Z"
         id="path34614" /></marker><marker
       style="overflow:visible"
       id="Arrow1Lend"
       refX="0"
       refY="0"
       orient="auto"
       inkscape:stockid="Arrow1Lend"
       inkscape:isstock="true"><path
         transform="matrix(-0.8,0,0,-0.8,-10,0)"
         style="fill:context-stroke;fill-rule:evenodd;stroke:context-stroke;stroke-width:1pt"
         d="M 0,0 5,-5 -12.5,0 5,5 Z"
         id="path34608" /></marker><inkscape:path-effect
       effect="bspline"
       id="path-effect34466"
       is_visible="true"
       lpeversion="1"
       weight="33.333333"
       steps="2"
       helper_size="0"
       apply_no_weight="true"
       apply_with_weight="true"
       only_selected="false" /><clipPath
       clipPathUnits="userSpaceOnUse"
       id="clipPath852"><path
         d="M 0,0 H 484 V 456 H 0 Z"
         id="path850" /></clipPath></defs><sodipodi:namedview
     id="namedview826"
     pagecolor="#505050"
     bordercolor="#eeeeee"
     borderopacity="1"
     inkscape:pageshadow="0"
     inkscape:pageopacity="0"
     inkscape:pagecheckerboard="0"
     showgrid="false"
     inkscape:zoom="2.8200652"
     inkscape:cx="202.12299"
     inkscape:cy="196.27206"
     inkscape:window-width="2278"
     inkscape:window-height="1367"
     inkscape:window-x="1152"
     inkscape:window-y="35"
     inkscape:window-maximized="0"
     inkscape:current-layer="g842"
     fit-margin-top="5"
     fit-margin-left="5"
     fit-margin-right="5"
     fit-margin-bottom="5"
     lock-margins="true" /><g
     id="g830"
     inkscape:groupmode="layer"
     inkscape:label="BLASSEL_memoire_IODAA_12-09-2018"
     transform="matrix(1.3333333,0,0,-1.3333333,-203.12207,1015.7532)"
     style="display:inline"><g
       id="g842"
       transform="matrix(0.60909,0,0,0.60909,150.238,479.108)"><path
         d="m 142.84,352.055 c -19.317,0 -34.973,-15.753 -34.973,-35.19 0,-19.435 15.656,-35.192 34.973,-35.188 1.34,0.012 2.68,0.106 4.012,0.274 -29.184,-28.09 -45.598,-66.196 -45.637,-105.942 0,-82.8082 69.676,-149.9414 155.625,-149.9414 85.945,0 155.621,67.1332 155.621,149.9414 -0.066,32.199 -10.891,63.524 -30.871,89.336 6.336,6.555 13.598,17.621 13.613,26.762 0,19.437 -17.66,35.476 -36.973,35.476 -11.597,-0.004 -24.156,-8.363 -30.66,-18.023 -21.902,10.769 -46.14,16.386 -70.73,16.391 -28.852,-0.04 -57.125,-7.805 -81.66,-22.43 1.73,4.234 2.625,8.766 2.629,13.344 0,19.437 -15.657,35.19 -34.969,35.19 z"
         style="fill:none;stroke:#000000;stroke-width:1.836;stroke-linecap:butt;stroke-linejoin:miter;stroke-miterlimit:4;stroke-dasharray:none;stroke-opacity:1"
         id="path856" /><path
         d="m 170.738,230.723 c 0.481,-0.882 0.95,-1.762 1.074,-2.515 0.129,-0.753 -0.097,-1.383 -0.679,-1.883 -0.578,-0.5 -1.5,-0.875 -2.434,-1.245 -0.933,-0.372 -1.856,-0.751 -2.433,-1.251 -0.582,-0.5 -0.809,-1.125 -0.684,-1.883 0.129,-0.753 0.598,-1.632 1.079,-2.515 0.479,-0.883 0.944,-1.762 1.073,-2.516 0.129,-0.754 -0.097,-1.383 -0.679,-1.883 -0.582,-0.5 -1.5,-0.875 -2.434,-1.246 -0.938,-0.374 -1.856,-0.75 -2.438,-1.25 -0.578,-0.5 -0.804,-1.129 -0.679,-1.883 0.129,-0.753 0.593,-1.632 1.074,-2.515 0.484,-0.884 0.949,-1.763 1.078,-2.517 0.126,-0.753 -0.101,-1.382 -0.679,-1.882 -0.582,-0.5 -1.504,-0.875 -2.438,-1.25 -0.934,-0.371 -1.856,-0.745 -2.434,-1.246 -0.582,-0.5 -0.808,-1.129 -0.679,-1.883 0.124,-0.753 0.593,-1.633 1.074,-2.515 0.48,-0.884 0.95,-1.762 1.073,-2.516 0.131,-0.758 -0.096,-1.383 -0.678,-1.883 -0.578,-0.5 -1.501,-0.879 -2.434,-1.25 -0.934,-0.371 -1.856,-0.746 -2.434,-1.246 -0.582,-0.5 -0.809,-1.129 -0.68,-1.882 0.126,-0.755 0.594,-1.634 1.075,-2.516"
         style="fill:none;stroke:#f04759;stroke-width:0.612;stroke-linecap:butt;stroke-linejoin:miter;stroke-miterlimit:4;stroke-dasharray:none;stroke-opacity:1"
         id="path858" /><path
         d="m 168.968,225.896 c 0.484,-0.883 0.95,-1.763 1.078,-2.516 0.126,-0.754 -0.101,-1.383 -0.678,-1.883 -0.583,-0.5 -1.505,-0.874 -2.438,-1.251 -0.934,-0.37 -1.856,-0.746 -2.434,-1.245 -0.582,-0.5 -0.808,-1.13 -0.68,-1.883 0.125,-0.754 0.593,-1.633 1.075,-2.515 0.48,-0.884 0.949,-1.762 1.074,-2.517 0.129,-0.757 -0.098,-1.382 -0.68,-1.882 -0.578,-0.5 -1.5,-0.879 -2.433,-1.25 -0.934,-0.371 -1.856,-0.746 -2.434,-1.246 -0.582,-0.501 -0.808,-1.129 -0.679,-1.883 0.124,-0.754 0.593,-1.633 1.074,-2.516 0.48,-0.882 0.949,-1.761 1.073,-2.514 0.13,-0.759 -0.097,-1.384 -0.679,-1.884 -0.582,-0.5 -1.5,-0.879 -2.433,-1.25 -0.935,-0.371 -1.856,-0.75 -2.439,-1.246 -0.577,-0.5 -0.804,-1.129 -0.679,-1.883 0.129,-0.757 0.594,-1.633 1.074,-2.516 0.485,-0.886 0.949,-1.761 1.079,-2.52 0.124,-0.753 -0.102,-1.382 -0.68,-1.878 -0.582,-0.5 -1.504,-0.878 -2.438,-1.25 -0.933,-0.372 -1.852,-0.75 -2.433,-1.25 -0.582,-0.5 -0.809,-1.125 -0.68,-1.879 0.126,-0.758 0.594,-1.637 1.074,-2.519"
         style="fill:none;stroke:#f04759;stroke-width:0.612;stroke-linecap:butt;stroke-linejoin:miter;stroke-miterlimit:4;stroke-dasharray:none;stroke-opacity:1"
         id="path860" /><path
         d="m 116.629,406.107 c 0,-19.434 -15.656,-35.188 -34.9688,-35.188 -19.3161,0 -34.9723,15.754 -34.9723,35.188 0,19.437 15.6562,35.191 34.9723,35.191 19.3128,0 34.9688,-15.754 34.9688,-35.191 z"
         style="fill:none;stroke:#000000;stroke-width:1.836;stroke-linecap:butt;stroke-linejoin:miter;stroke-miterlimit:4;stroke-dasharray:none;stroke-opacity:1"
         id="path862" /><path
         d="m 65.1211,422.583 c 1.0039,-0.015 1.9961,-0.039 2.7187,-0.296 0.7192,-0.262 1.1563,-0.766 1.3051,-1.516 0.152,-0.754 0.027,-1.738 -0.1058,-2.734 -0.1332,-0.997 -0.2582,-1.985 -0.1051,-2.735 0.1519,-0.75 0.5859,-1.258 1.3039,-1.515 0.723,-0.262 1.7152,-0.286 2.723,-0.297 1.0039,-0.016 2,-0.039 2.7192,-0.297 0.7219,-0.263 1.1558,-0.766 1.3078,-1.516 0.1492,-0.754 0.0281,-1.738 -0.1051,-2.734 -0.1367,-0.997 -0.2578,-1.985 -0.1098,-2.735 0.1532,-0.754 0.586,-1.257 1.309,-1.515 0.7192,-0.263 1.7149,-0.285 2.7192,-0.297 1.0078,-0.016 2,-0.039 2.7218,-0.297 0.7192,-0.262 1.1571,-0.766 1.3051,-1.52 0.152,-0.75 0.027,-1.734 -0.1051,-2.73 -0.1332,-1 -0.2582,-1.985 -0.1058,-2.735 0.1488,-0.753 0.5859,-1.257 1.3047,-1.515 0.723,-0.262 1.7152,-0.285 2.723,-0.301 1.0031,-0.011 1.9961,-0.035 2.718,-0.297 0.7191,-0.257 1.157,-0.762 1.3051,-1.515 0.1519,-0.75 0.0308,-1.74 -0.1059,-2.735 -0.132,-0.996 -0.257,-1.98 -0.1051,-2.734 0.152,-0.75 0.586,-1.254 1.3051,-1.516 0.7219,-0.257 1.7149,-0.281 2.7219,-0.297"
         style="fill:none;stroke:#f04759;stroke-width:0.612;stroke-linecap:butt;stroke-linejoin:miter;stroke-miterlimit:4;stroke-dasharray:none;stroke-opacity:1"
         id="path864" /><path
         d="m 100.781,410.267 c -1.179,-2.223 -3.297,-3.411 -4.7298,-2.649 -1.434,0.758 -1.6371,3.18 -0.4571,5.403 1.1789,2.226 3.3008,3.414 4.7339,2.652 1.43,-0.762 1.637,-3.18 0.453,-5.406 z"
         style="fill:#00ffff;fill-opacity:1;fill-rule:nonzero;stroke:none;stroke-width:0.1"
         id="path866" /><path
         d="m 100.781,410.267 c -1.1798,-2.223 -3.297,-3.411 -4.7302,-2.648 -1.4336,0.757 -1.636,3.179 -0.4578,5.401 1.1808,2.227 3.3019,3.415 4.735,2.653 1.43,-0.762 1.636,-3.18 0.453,-5.406 z"
         style="fill:none;stroke:#000000;stroke-width:0.522246;stroke-linecap:butt;stroke-linejoin:miter;stroke-miterlimit:4;stroke-dasharray:none;stroke-opacity:1"
         id="path868" /><path
         d="m 72.5078,392.774 c -0.5738,-1.609 -3.0277,-2.207 -5.4808,-1.332 -2.4489,0.871 -3.9758,2.883 -3.402,4.489 0.5699,1.609 3.023,2.207 5.477,1.336 2.4531,-0.875 3.9761,-2.883 3.4058,-4.493 z"
         style="fill:#ffff00;fill-opacity:1;fill-rule:nonzero;stroke:none;stroke-width:0.1"
         id="path870" /><path
         d="m 72.5082,392.775 c -0.5746,-1.61 -3.0277,-2.207 -5.4809,-1.333 -2.4492,0.871 -3.9761,2.883 -3.4019,4.489 0.5699,1.609 3.023,2.207 5.4762,1.335 2.4535,-0.875 3.9765,-2.882 3.4066,-4.491 z"
         style="fill:none;stroke:#000000;stroke-width:0.523871;stroke-linecap:butt;stroke-linejoin:miter;stroke-miterlimit:4;stroke-dasharray:none;stroke-opacity:1"
         id="path872" /><path
         d="m 80.5781,427.419 c 1.2231,-1.902 1.1367,-4.137 -0.1953,-4.988 -1.3277,-0.856 -3.3949,-0.004 -4.6168,1.902 -1.223,1.902 -1.1332,4.137 0.1949,4.992 1.3282,0.852 3.3981,0 4.6172,-1.906 z"
         style="fill:#ff2a2a;fill-opacity:1;fill-rule:nonzero;stroke:none;stroke-width:0.1"
         id="path874" /><path
         d="m 80.5785,427.419 c 1.2219,-1.902 1.1363,-4.137 -0.1957,-4.989 -1.3289,-0.855 -3.3949,-0.003 -4.6168,1.903 -1.2234,1.903 -1.1336,4.137 0.1949,4.992 1.3282,0.852 3.3977,0 4.6176,-1.906 z"
         style="fill:none;stroke:#000000;stroke-width:0.523872;stroke-linecap:butt;stroke-linejoin:miter;stroke-miterlimit:4;stroke-dasharray:none;stroke-opacity:1"
         id="path876" /><path
         d="m 40.5512,422.169 21.4179,-2.625"
         style="fill:none;stroke:#000000;stroke-width:0.612;stroke-linecap:butt;stroke-linejoin:miter;stroke-miterlimit:4;stroke-dasharray:none;stroke-opacity:1"
         id="path912" /><path
         d="m 59.5391,419.841 -1.3629,-1.067 4.4019,0.696 -4.1051,1.738 z"
         style="fill:#000000;fill-opacity:1;fill-rule:evenodd;stroke:none;stroke-width:0.1"
         id="path914" /><path
         d="m 59.5387,419.841 -1.3629,-1.067 4.4019,0.696 -4.1047,1.739 z"
         style="fill:none;stroke:#000000;stroke-width:0.306;stroke-linecap:butt;stroke-linejoin:miter;stroke-miterlimit:4;stroke-dasharray:none;stroke-opacity:1"
         id="path916" /><path
         d="m 76.398,445.9 0.875,-11.363"
         style="fill:none;stroke:#000000;stroke-width:0.612;stroke-linecap:butt;stroke-linejoin:miter;stroke-miterlimit:4;stroke-dasharray:none;stroke-opacity:1"
         id="path918" /><path
         d="m 77.0859,436.978 -1.3129,1.125 1.5469,-4.176 0.891,4.363 z"
         style="fill:#000000;fill-opacity:1;fill-rule:evenodd;stroke:none;stroke-width:0.1"
         id="path920" /><path
         d="m 77.0863,436.978 -1.3125,1.124 1.5461,-4.175 0.8906,4.362 z"
         style="fill:none;stroke:#000000;stroke-width:0.306;stroke-linecap:butt;stroke-linejoin:miter;stroke-miterlimit:4;stroke-dasharray:none;stroke-opacity:1"
         id="path922" /><path
         d="m 119.559,431.654 -14.86,-13.551"
         style="fill:none;stroke:#000000;stroke-width:0.612;stroke-linecap:butt;stroke-linejoin:miter;stroke-miterlimit:4;stroke-dasharray:none;stroke-opacity:1"
         id="path924" /><path
         d="m 106.508,419.751 0.078,1.73 -2.34,-3.789 3.988,1.981 z"
         style="fill:#000000;fill-opacity:1;fill-rule:evenodd;stroke:none;stroke-width:0.1"
         id="path926" /><path
         d="m 106.508,419.752 0.078,1.73 -2.34,-3.789 3.988,1.979 z"
         style="fill:none;stroke:#000000;stroke-width:0.305999;stroke-linecap:butt;stroke-linejoin:miter;stroke-miterlimit:4;stroke-dasharray:none;stroke-opacity:1"
         id="path928" /><path
         d="m 41.4648,380.696 18.359,10.925"
         style="fill:none;stroke:#000000;stroke-width:0.612;stroke-linecap:butt;stroke-linejoin:miter;stroke-miterlimit:4;stroke-dasharray:none;stroke-opacity:1"
         id="path930" /><path
         d="m 57.723,390.372 -0.4261,-1.68 3.0551,3.246 -4.309,-1.14 z"
         style="fill:#000000;fill-opacity:1;fill-rule:evenodd;stroke:none;stroke-width:0.1"
         id="path932" /><path
         d="m 57.7219,390.372 -0.425,-1.679 3.0547,3.245 -4.3086,-1.141 z"
         style="fill:none;stroke:#000000;stroke-width:0.306;stroke-linecap:butt;stroke-linejoin:miter;stroke-miterlimit:4;stroke-dasharray:none;stroke-opacity:1"
         id="path934" /><path
         d="m 146.504,310.31 c 1.004,-0.016 2,-0.039 2.719,-0.297 0.718,-0.262 1.156,-0.767 1.308,-1.517 0.149,-0.752 0.028,-1.737 -0.109,-2.733 -0.133,-0.996 -0.258,-1.984 -0.106,-2.734 0.153,-0.754 0.586,-1.258 1.309,-1.516 0.719,-0.262 1.715,-0.285 2.719,-0.297 1.004,-0.015 2,-0.039 2.718,-0.297 0.723,-0.261 1.157,-0.765 1.309,-1.519 0.149,-0.75 0.027,-1.736 -0.105,-2.731 -0.137,-1 -0.258,-1.984 -0.11,-2.734 0.153,-0.755 0.586,-1.258 1.309,-1.516 0.719,-0.261 1.715,-0.285 2.719,-0.3 1.007,-0.012 2,-0.036 2.722,-0.298 0.719,-0.257 1.156,-0.761 1.305,-1.516 0.152,-0.75 0.027,-1.737 -0.106,-2.734 -0.132,-0.995 -0.257,-1.98 -0.105,-2.734 0.148,-0.75 0.586,-1.254 1.305,-1.516 0.722,-0.257 1.715,-0.282 2.722,-0.296 1.004,-0.012 2,-0.035 2.719,-0.297 0.719,-0.258 1.156,-0.762 1.309,-1.516 0.148,-0.75 0.027,-1.738 -0.11,-2.734 -0.133,-0.996 -0.257,-1.982 -0.105,-2.734 0.152,-0.75 0.586,-1.254 1.308,-1.516 0.719,-0.258 1.715,-0.282 2.719,-0.298"
         style="fill:none;stroke:#f04759;stroke-width:0.612;stroke-linecap:butt;stroke-linejoin:miter;stroke-miterlimit:4;stroke-dasharray:none;stroke-opacity:1"
         id="path936" /><path
         d="m 188.629,293.146 c -1.18,-2.227 -3.297,-3.411 -4.731,-2.653 -1.433,0.762 -1.636,3.18 -0.457,5.406 1.18,2.223 3.301,3.411 4.735,2.653 1.429,-0.762 1.636,-3.184 0.453,-5.406 z"
         style="fill:#00ffff;fill-opacity:1;fill-rule:nonzero;stroke:none;stroke-width:0.1"
         id="path938" /><path
         d="m 188.629,293.145 c -1.179,-2.227 -3.297,-3.41 -4.73,-2.652 -1.434,0.761 -1.637,3.18 -0.458,5.406 1.18,2.223 3.301,3.411 4.735,2.652 1.429,-0.761 1.637,-3.183 0.453,-5.406 z"
         style="fill:none;stroke:#000000;stroke-width:0.522246;stroke-linecap:butt;stroke-linejoin:miter;stroke-miterlimit:4;stroke-dasharray:none;stroke-opacity:1"
         id="path940" /><path
         d="m 159.949,268.782 c -0.57,-1.609 -3.023,-2.207 -5.476,-1.332 -2.453,0.871 -3.977,2.883 -3.407,4.492 0.575,1.606 3.024,2.204 5.477,1.332 2.453,-0.871 3.98,-2.882 3.406,-4.492 z"
         style="fill:#ffff00;fill-opacity:1;fill-rule:nonzero;stroke:none;stroke-width:0.1"
         id="path942" /><path
         d="m 159.949,268.782 c -0.57,-1.609 -3.023,-2.207 -5.476,-1.331 -2.453,0.871 -3.978,2.882 -3.406,4.491 0.574,1.606 3.022,2.203 5.476,1.333 2.453,-0.871 3.981,-2.883 3.406,-4.493 z"
         style="fill:none;stroke:#000000;stroke-width:0.523871;stroke-linecap:butt;stroke-linejoin:miter;stroke-miterlimit:4;stroke-dasharray:none;stroke-opacity:1"
         id="path944" /><path
         d="m 159.496,320.47 c 1.223,-1.907 1.137,-4.141 -0.195,-4.992 -1.328,-0.852 -3.395,0 -4.617,1.902 -1.223,1.906 -1.133,4.141 0.195,4.992 1.328,0.852 3.398,0 4.617,-1.902 z"
         style="fill:#ff2a2a;fill-opacity:1;fill-rule:nonzero;stroke:none;stroke-width:0.1"
         id="path946" /><path
         d="m 159.497,320.47 c 1.221,-1.907 1.136,-4.141 -0.197,-4.992 -1.328,-0.852 -3.393,-0.001 -4.617,1.902 -1.222,1.906 -1.133,4.14 0.196,4.992 1.328,0.851 3.398,0 4.618,-1.902 z"
         style="fill:none;stroke:#000000;stroke-width:0.523872;stroke-linecap:butt;stroke-linejoin:miter;stroke-miterlimit:4;stroke-dasharray:none;stroke-opacity:1"
         id="path948" /><path
         d="m 370.781,123.388 c 0,-41.9732 -43.297,-76.0005 -96.707,-76.0005 -53.406,0 -96.703,34.0273 -96.703,76.0005 0,41.976 43.297,76.004 96.703,76.004 53.41,0 96.707,-34.028 96.707,-76.004 z"
         style="fill:none;stroke:#000000;stroke-width:0.849854;stroke-linecap:butt;stroke-linejoin:miter;stroke-miterlimit:4;stroke-dasharray:1.69971, 3.39942;stroke-dashoffset:0;stroke-opacity:1"
         id="path950" /><path
         d="m 257.019,60.4816 c 0.387,0.9254 0.777,1.8438 1.29,2.4141 0.508,0.5738 1.136,0.7883 1.89,0.6477 0.754,-0.1364 1.625,-0.6207 2.501,-1.1168 0.875,-0.4922 1.745,-0.977 2.495,-1.1133 0.754,-0.1406 1.387,0.0746 1.895,0.6484 0.508,0.5707 0.902,1.4883 1.289,2.4149 0.386,0.9293 0.777,1.8425 1.285,2.4132 0.511,0.5743 1.141,0.7891 1.895,0.6485 0.754,-0.1363 1.625,-0.6207 2.5,-1.1129 0.875,-0.4961 1.742,-0.9766 2.496,-1.1172 0.754,-0.1406 1.383,0.0777 1.894,0.6484 0.508,0.5739 0.899,1.4883 1.285,2.4145 0.391,0.9285 0.782,1.843 1.289,2.4137 0.508,0.5738 1.141,0.7886 1.895,0.648 0.75,-0.1367 1.621,-0.6207 2.496,-1.1129 0.875,-0.4965 1.746,-0.9761 2.5,-1.1168 0.754,-0.141 1.383,0.0774 1.895,0.6481 0.508,0.5742 0.898,1.4883 1.285,2.4136 0.387,0.9297 0.781,1.8438 1.289,2.4145 0.508,0.5742 1.14,0.7891 1.89,0.6523 0.754,-0.1406 1.625,-0.6214 2.5,-1.1168 0.875,-0.4964 1.747,-0.9773 2.501,-1.1183 0.749,-0.1399 1.382,0.0785 1.89,0.6492 0.512,0.5742 0.902,1.4883 1.289,2.4137"
         style="fill:none;stroke:#999999;stroke-width:0.612;stroke-linecap:butt;stroke-linejoin:miter;stroke-miterlimit:4;stroke-dasharray:none;stroke-opacity:1"
         id="path952" /><path
         d="m 261.891,62.1297 c 0.386,0.9262 0.777,1.8406 1.288,2.4144 0.509,0.5696 1.141,0.7891 1.892,0.6485 0.754,-0.1406 1.625,-0.6207 2.499,-1.1176 0.875,-0.4961 1.746,-0.9762 2.5,-1.1168 0.751,-0.1363 1.384,0.0777 1.891,0.6527 0.507,0.5692 0.903,1.484 1.289,2.4133 0.387,0.9266 0.778,1.8399 1.289,2.4137 0.508,0.5707 1.137,0.7902 1.891,0.6492 0.754,-0.1406 1.624,-0.6219 2.499,-1.1172 0.876,-0.4965 1.747,-0.9761 2.496,-1.1176 0.754,-0.1371 1.388,0.0782 1.896,0.6532 0.507,0.5695 0.902,1.484 1.288,2.4136 0.387,0.9254 0.778,1.8395 1.286,2.4137 0.511,0.5703 1.141,0.7899 1.893,0.6488 0.755,-0.1406 1.626,-0.6218 2.501,-1.1168 0.875,-0.4933 1.742,-0.9769 2.496,-1.114 0.754,-0.1406 1.383,0.0742 1.894,0.648 0.509,0.5707 0.899,1.4852 1.285,2.4145 0.392,0.9258 0.782,1.8398 1.29,2.4137 0.508,0.5707 1.14,0.789 1.894,0.6484 0.75,-0.1399 1.622,-0.6207 2.496,-1.1164 0.875,-0.493 1.747,-0.9774 2.5,-1.1137 0.754,-0.1406 1.383,0.0742 1.895,0.6485 0.508,0.5707 0.899,1.4847 1.285,2.4144"
         style="fill:none;stroke:#999999;stroke-width:0.612;stroke-linecap:butt;stroke-linejoin:miter;stroke-miterlimit:4;stroke-dasharray:none;stroke-opacity:1"
         id="path954" /><path
         d="m 302.176,75.1379 c 0.387,0.9293 0.781,1.8437 1.289,2.4133 0.508,0.575 1.14,0.789 1.894,0.6496 0.751,-0.1375 1.621,-0.6223 2.496,-1.1141 0.875,-0.4953 1.747,-0.9765 2.5,-1.1172 0.754,-0.1406 1.383,0.0785 1.891,0.6481 0.512,0.5754 0.903,1.4887 1.289,2.4148 0.387,0.9297 0.778,1.8442 1.289,2.4137 0.508,0.575 1.141,0.7891 1.89,0.6488 0.755,-0.1371 1.625,-0.6215 2.5,-1.1136 0.876,-0.4961 1.747,-0.9762 2.501,-1.1168 0.749,-0.1411 1.383,0.0785 1.89,0.6476 0.513,0.5746 0.903,1.4887 1.29,2.4152 0.386,0.9297 0.777,1.843 1.289,2.4133 0.508,0.5742 1.136,0.7887 1.89,0.6524 0.754,-0.1407 1.625,-0.6207 2.5,-1.1168 0.875,-0.4965 1.746,-0.9766 2.496,-1.1176 0.754,-0.1406 1.387,0.0777 1.894,0.6484 0.509,0.5739 0.904,1.4887 1.289,2.4145 0.388,0.9301 0.778,1.843 1.286,2.4137 0.512,0.5742 1.14,0.789 1.894,0.6527 0.754,-0.1406 1.625,-0.6219 2.501,-1.1172 0.875,-0.4961 1.741,-0.9766 2.495,-1.1172 0.754,-0.1375 1.384,0.0778 1.895,0.6481 0.508,0.5742 0.899,1.4882 1.285,2.4148"
         style="fill:none;stroke:#999999;stroke-width:0.612;stroke-linecap:butt;stroke-linejoin:miter;stroke-miterlimit:4;stroke-dasharray:none;stroke-opacity:1"
         id="path956" /><path
         d="m 307.051,76.7855 c 0.387,0.9266 0.777,1.8407 1.285,2.4149 0.512,0.5707 1.141,0.7891 1.895,0.6484 0.754,-0.141 1.621,-0.6211 2.496,-1.1175 0.875,-0.4922 1.746,-0.9762 2.5,-1.1125 0.754,-0.1411 1.382,0.0738 1.894,0.648 0.508,0.5703 0.899,1.4836 1.285,2.4133 0.387,0.9262 0.782,1.841 1.29,2.4148 0.507,0.5703 1.14,0.7891 1.894,0.6485 0.75,-0.1411 1.621,-0.6211 2.496,-1.1172 0.875,-0.4922 1.746,-0.977 2.501,-1.1137 0.752,-0.1402 1.381,0.0746 1.89,0.6488 0.511,0.5696 0.902,1.484 1.289,2.4137 0.386,0.9262 0.777,1.8438 1.288,2.4145 0.509,0.5695 1.141,0.789 1.891,0.6484 0.754,-0.1363 1.625,-0.6207 2.501,-1.1172 0.875,-0.4918 1.745,-0.9766 2.499,-1.1141 0.75,-0.1394 1.384,0.0743 1.891,0.6493 0.512,0.5699 0.902,1.4839 1.289,2.4136 0.386,0.9297 0.777,1.8442 1.289,2.4137 0.507,0.575 1.137,0.7898 1.891,0.6492 0.754,-0.1375 1.625,-0.6215 2.5,-1.1136 0.874,-0.4958 1.745,-0.9801 2.496,-1.1172 0.754,-0.1407 1.387,0.0785 1.894,0.6492 0.508,0.5691 0.903,1.4871 1.289,2.4137"
         style="fill:none;stroke:#999999;stroke-width:0.612;stroke-linecap:butt;stroke-linejoin:miter;stroke-miterlimit:4;stroke-dasharray:none;stroke-opacity:1"
         id="path958" /><path
         d="m 176.883,271.161 c 3.679,-18.394 1.117,-29.324 -1.844,-34.332 -1.363,-2.312 -2.598,-4.05 -2.598,-4.05"
         style="fill:none;stroke:#000000;stroke-width:0.8;stroke-linecap:butt;stroke-linejoin:miter;stroke-miterlimit:4;stroke-dasharray:none;stroke-opacity:1"
         id="path998" /><path
         d="m 174.293,235.388 -0.379,2.23 -1.937,-5.492 4.546,3.641 z"
         style="fill:#000000;fill-opacity:1;fill-rule:evenodd;stroke:none;stroke-width:0.1"
         id="path1000" /><path
         d="m 174.294,235.388 -0.38,2.23 -1.937,-5.493 4.547,3.642 z"
         style="fill:none;stroke:#000000;stroke-width:0.4;stroke-linecap:butt;stroke-linejoin:miter;stroke-miterlimit:4;stroke-dasharray:none;stroke-opacity:1"
         id="path1002" /><path
         d="m 177.754,248.767 c -2.109,0.816 -3.359,2.668 -2.793,4.14 0.57,1.477 2.742,2.012 4.851,1.196 2.11,-0.813 3.36,-2.665 2.793,-4.141 -0.566,-1.473 -2.738,-2.008 -4.851,-1.195 z"
         style="fill:#ff2a2a;fill-opacity:1;fill-rule:nonzero;stroke:none;stroke-width:0.1"
         id="path1004" /><path
         d="m 177.754,248.767 c -2.109,0.816 -3.359,2.668 -2.793,4.14 0.57,1.477 2.742,2.012 4.852,1.195 2.109,-0.812 3.358,-2.664 2.793,-4.14 -0.567,-1.473 -2.739,-2.008 -4.852,-1.195 z"
         style="fill:none;stroke:#000000;stroke-width:0.523871;stroke-linecap:butt;stroke-linejoin:miter;stroke-miterlimit:4;stroke-dasharray:none;stroke-opacity:1"
         id="path1006" /><path
         d="m 347.425,103.876 c -0.921,-0.395 -1.843,-0.774 -2.604,-0.828 -0.766,-0.055 -1.368,0.23 -1.81,0.855 -0.441,0.629 -0.729,1.579 -1.007,2.543 -0.281,0.969 -0.57,1.918 -1.011,2.547 -0.442,0.625 -1.045,0.91 -1.81,0.855 -0.761,-0.054 -1.683,-0.433 -2.605,-0.828 -0.926,-0.394 -1.843,-0.777 -2.609,-0.831 -0.766,-0.051 -1.367,0.233 -1.809,0.858 -0.442,0.625 -0.727,1.579 -1.007,2.544 -0.282,0.964 -0.571,1.918 -1.012,2.543 -0.441,0.625 -1.044,0.91 -1.809,0.855 -0.762,-0.051 -1.68,-0.434 -2.605,-0.828 -0.927,-0.395 -1.845,-0.774 -2.61,-0.828 -0.762,-0.055 -1.367,0.23 -1.808,0.855 -0.442,0.625 -0.727,1.579 -1.008,2.544 -0.281,0.964 -0.566,1.917 -1.012,2.542 -0.441,0.63 -1.043,0.914 -1.809,0.86 -0.761,-0.055 -1.68,-0.438 -2.605,-0.832 -0.926,-0.391 -1.844,-0.774 -2.61,-0.829 -0.761,-0.054 -1.366,0.231 -1.808,0.86 -0.441,0.624 -0.726,1.578 -1.008,2.544 -0.281,0.964 -0.566,1.917 -1.008,2.542 -0.445,0.625 -1.046,0.91 -1.808,0.856 -0.766,-0.055 -1.684,-0.434 -2.61,-0.829"
         style="fill:none;stroke:#999999;stroke-width:0.612;stroke-linecap:butt;stroke-linejoin:miter;stroke-miterlimit:4;stroke-dasharray:none;stroke-opacity:1"
         id="path1032" /><path
         d="m 342.789,106.098 c -0.926,-0.394 -1.844,-0.773 -2.605,-0.827 -0.766,-0.055 -1.368,0.229 -1.809,0.854 -0.442,0.625 -0.73,1.58 -1.011,2.543 -0.282,0.97 -0.568,1.92 -1.009,2.548 -0.441,0.625 -1.046,0.91 -1.808,0.855 -0.766,-0.055 -1.683,-0.433 -2.61,-0.828 -0.921,-0.395 -1.843,-0.777 -2.605,-0.832 -0.766,-0.054 -1.368,0.234 -1.809,0.859 -0.441,0.625 -0.731,1.578 -1.012,2.543 -0.277,0.965 -0.566,1.918 -1.007,2.544 -0.441,0.625 -1.043,0.909 -1.809,0.855 -0.766,-0.051 -1.683,-0.433 -2.609,-0.828 -0.922,-0.395 -1.844,-0.773 -2.605,-0.828 -0.766,-0.055 -1.368,0.23 -1.81,0.855 -0.44,0.625 -0.729,1.578 -1.007,2.544 -0.281,0.964 -0.57,1.917 -1.012,2.542 -0.441,0.629 -1.043,0.914 -1.809,0.86 -0.761,-0.055 -1.683,-0.439 -2.605,-0.833 -0.926,-0.39 -1.843,-0.774 -2.609,-0.828 -0.765,-0.054 -1.368,0.231 -1.809,0.859 -0.441,0.625 -0.726,1.579 -1.007,2.543 -0.282,0.966 -0.572,1.918 -1.012,2.543 -0.442,0.625 -1.044,0.911 -1.809,0.856 -0.761,-0.054 -1.68,-0.433 -2.605,-0.829"
         style="fill:none;stroke:#999999;stroke-width:0.612;stroke-linecap:butt;stroke-linejoin:miter;stroke-miterlimit:4;stroke-dasharray:none;stroke-opacity:1"
         id="path1034" /><path
         d="m 262.375,145.634 c -0.925,-0.395 -1.843,-0.774 -2.609,-0.829 -0.762,-0.054 -1.368,0.231 -1.809,0.857 -0.441,0.628 -0.727,1.577 -1.008,2.546 -0.281,0.965 -0.57,1.918 -1.011,2.543 -0.442,0.625 -1.044,0.91 -1.809,0.856 -0.762,-0.056 -1.68,-0.434 -2.606,-0.829 -0.926,-0.394 -1.843,-0.777 -2.609,-0.832 -0.762,-0.05 -1.367,0.235 -1.808,0.86 -0.442,0.625 -0.727,1.578 -1.008,2.542 -0.281,0.965 -0.567,1.918 -1.012,2.543 -0.441,0.625 -1.044,0.911 -1.809,0.856 -0.762,-0.051 -1.68,-0.434 -2.605,-0.828 -0.927,-0.395 -1.844,-0.773 -2.609,-0.828 -0.762,-0.054 -1.368,0.23 -1.809,0.855 -0.441,0.626 -0.727,1.578 -1.008,2.543 -0.281,0.969 -0.566,1.918 -1.008,2.543 -0.445,0.629 -1.047,0.914 -1.808,0.86 -0.766,-0.055 -1.684,-0.438 -2.61,-0.828 -0.925,-0.396 -1.843,-0.777 -2.609,-0.832 -0.762,-0.055 -1.364,0.234 -1.804,0.859 -0.446,0.624 -0.731,1.578 -1.013,2.543 -0.281,0.964 -0.566,1.918 -1.008,2.543 -0.441,0.625 -1.046,0.91 -1.808,0.855 -0.766,-0.054 -1.683,-0.434 -2.61,-0.827"
         style="fill:none;stroke:#999999;stroke-width:0.612;stroke-linecap:butt;stroke-linejoin:miter;stroke-miterlimit:4;stroke-dasharray:none;stroke-opacity:1"
         id="path1036" /><path
         d="m 257.735,147.857 c -0.922,-0.394 -1.844,-0.775 -2.606,-0.829 -0.766,-0.055 -1.367,0.231 -1.808,0.856 -0.442,0.629 -0.731,1.578 -1.012,2.547 -0.278,0.965 -0.567,1.917 -1.008,2.543 -0.442,0.625 -1.043,0.909 -1.808,0.855 -0.766,-0.054 -1.684,-0.434 -2.61,-0.827 -0.922,-0.395 -1.844,-0.779 -2.606,-0.833 -0.766,-0.051 -1.367,0.235 -1.808,0.86 -0.442,0.625 -0.731,1.578 -1.008,2.542 -0.281,0.965 -0.57,1.918 -1.012,2.543 -0.441,0.625 -1.043,0.91 -1.808,0.855 -0.762,-0.051 -1.684,-0.433 -2.606,-0.827 -0.926,-0.396 -1.844,-0.773 -2.61,-0.828 -0.761,-0.055 -1.367,0.23 -1.808,0.855 -0.441,0.624 -0.726,1.578 -1.008,2.543 -0.281,0.964 -0.57,1.918 -1.011,2.543 -0.441,0.629 -1.044,0.914 -1.81,0.859 -0.76,-0.055 -1.679,-0.437 -2.604,-0.828 -0.927,-0.395 -1.844,-0.778 -2.609,-0.832 -0.762,-0.055 -1.368,0.23 -1.809,0.859 -0.442,0.625 -0.727,1.578 -1.008,2.544 -0.282,0.964 -0.566,1.917 -1.011,2.543 -0.442,0.625 -1.044,0.91 -1.81,0.855 -0.761,-0.055 -1.68,-0.434 -2.605,-0.828"
         style="fill:none;stroke:#999999;stroke-width:0.612;stroke-linecap:butt;stroke-linejoin:miter;stroke-miterlimit:4;stroke-dasharray:none;stroke-opacity:1"
         id="path1038" /><path
         d="m 304.652,124.544 c -0.93,-0.39 -1.847,-0.765 -2.613,-0.816 -0.765,-0.051 -1.367,0.238 -1.805,0.867 -0.436,0.625 -0.718,1.582 -0.996,2.547 -0.274,0.969 -0.558,1.922 -0.996,2.551 -0.438,0.625 -1.039,0.913 -1.805,0.862 -0.761,-0.05 -1.683,-0.425 -2.608,-0.815 -0.931,-0.387 -1.849,-0.766 -2.615,-0.813 -0.764,-0.051 -1.366,0.239 -1.803,0.863 -0.438,0.629 -0.72,1.583 -0.997,2.551 -0.277,0.964 -0.558,1.918 -0.996,2.547 -0.438,0.629 -1.039,0.918 -1.805,0.867 -0.761,-0.051 -1.683,-0.425 -2.609,-0.816 -0.93,-0.391 -1.848,-0.766 -2.613,-0.817 -0.766,-0.051 -1.367,0.239 -1.805,0.867 -0.437,0.629 -0.719,1.583 -0.996,2.548 -0.277,0.968 -0.558,1.921 -0.996,2.55 -0.438,0.629 -1.039,0.914 -1.805,0.868 -0.762,-0.052 -1.683,-0.43 -2.613,-0.818 -0.926,-0.389 -1.848,-0.764 -2.609,-0.815 -0.766,-0.051 -1.368,0.237 -1.805,0.866 -0.438,0.626 -0.719,1.583 -0.996,2.548 -0.277,0.969 -0.559,1.921 -0.996,2.55 -0.438,0.625 -1.039,0.914 -1.805,0.864 -0.766,-0.051 -1.684,-0.426 -2.614,-0.817"
         style="fill:none;stroke:#f04759;stroke-width:0.611999;stroke-linecap:butt;stroke-linejoin:miter;stroke-miterlimit:4;stroke-dasharray:none;stroke-opacity:1"
         id="path1040" /><path
         d="m 300.023,126.79 c -0.926,-0.391 -1.846,-0.765 -2.609,-0.817 -0.766,-0.05 -1.367,0.239 -1.805,0.868 -0.438,0.625 -0.722,1.582 -0.996,2.547 -0.277,0.969 -0.558,1.921 -0.996,2.55 -0.441,0.626 -1.038,0.915 -1.804,0.864 -0.766,-0.051 -1.684,-0.425 -2.614,-0.816 -0.926,-0.387 -1.847,-0.766 -2.609,-0.813 -0.765,-0.051 -1.367,0.238 -1.804,0.863 -0.442,0.63 -0.723,1.582 -0.997,2.552 -0.276,0.964 -0.559,1.921 -0.996,2.546 -0.441,0.629 -1.043,0.918 -1.805,0.867 -0.765,-0.051 -1.688,-0.426 -2.613,-0.815 -0.925,-0.391 -1.848,-0.767 -2.609,-0.817 -0.766,-0.051 -1.367,0.237 -1.805,0.866 -0.441,0.63 -0.723,1.582 -0.996,2.547 -0.277,0.969 -0.558,1.923 -0.996,2.552 -0.442,0.628 -1.043,0.918 -1.805,0.866 -0.765,-0.051 -1.687,-0.43 -2.614,-0.816 -0.925,-0.391 -1.847,-0.766 -2.612,-0.817 -0.762,-0.05 -1.364,0.238 -1.801,0.867 -0.441,0.626 -0.723,1.583 -0.996,2.548 -0.277,0.968 -0.559,1.922 -0.997,2.551 -0.44,0.624 -1.042,0.914 -1.804,0.862 -0.766,-0.05 -1.687,-0.425 -2.613,-0.816"
         style="fill:none;stroke:#f04759;stroke-width:0.611999;stroke-linecap:butt;stroke-linejoin:miter;stroke-miterlimit:4;stroke-dasharray:none;stroke-opacity:1"
         id="path1042" /><path
         d="m 211.348,115.805 c 0.94,0.36 1.875,0.704 2.64,0.728 0.765,0.022 1.356,-0.286 1.774,-0.93 0.413,-0.641 0.663,-1.606 0.906,-2.583 0.242,-0.976 0.489,-1.937 0.907,-2.581 0.417,-0.641 1.007,-0.95 1.773,-0.926 0.765,0.024 1.698,0.367 2.637,0.723 0.94,0.355 1.874,0.702 2.64,0.726 0.766,0.024 1.355,-0.286 1.773,-0.93 0.414,-0.645 0.665,-1.606 0.907,-2.582 0.241,-0.976 0.491,-1.938 0.906,-2.582 0.417,-0.641 1.007,-0.953 1.774,-0.93 0.765,0.028 1.699,0.371 2.64,0.727 0.938,0.356 1.871,0.699 2.637,0.726 0.765,0.024 1.356,-0.288 1.773,-0.929 0.418,-0.645 0.664,-1.606 0.907,-2.582 0.242,-0.977 0.492,-1.937 0.905,-2.5823 0.419,-0.6403 1.008,-0.9536 1.774,-0.9297 0.765,0.0234 1.699,0.3715 2.64,0.7273 0.939,0.3547 1.871,0.6981 2.637,0.7219 0.766,0.0234 1.36,-0.2844 1.774,-0.9262 0.419,-0.6437 0.664,-1.6047 0.906,-2.5816 0.242,-0.9766 0.492,-1.941 0.911,-2.5824 0.413,-0.6438 1.004,-0.9524 1.769,-0.9286 0.765,0.0223 1.699,0.3664 2.641,0.7258"
         style="fill:none;stroke:#f04759;stroke-width:0.612;stroke-linecap:butt;stroke-linejoin:miter;stroke-miterlimit:4;stroke-dasharray:none;stroke-opacity:1"
         id="path1044" /><path
         d="m 215.894,113.399 c 0.942,0.36 1.875,0.704 2.637,0.727 0.765,0.024 1.36,-0.286 1.774,-0.93 0.418,-0.641 0.667,-1.605 0.909,-2.582 0.239,-0.972 0.49,-1.937 0.907,-2.582 0.415,-0.64 1.008,-0.949 1.774,-0.926 0.765,0.024 1.698,0.367 2.637,0.723 0.94,0.36 1.875,0.703 2.64,0.727 0.765,0.023 1.356,-0.285 1.769,-0.931 0.418,-0.639 0.668,-1.605 0.911,-2.58 0.241,-0.977 0.488,-1.939 0.906,-2.584 0.418,-0.639 1.008,-0.949 1.773,-0.925 0.765,0.024 1.7,0.368 2.637,0.723 0.941,0.355 1.875,0.702 2.64,0.726 0.767,0.024 1.356,-0.285 1.774,-0.93 0.414,-0.644 0.665,-1.605 0.907,-2.5816 0.241,-0.9761 0.488,-1.9375 0.906,-2.5812 0.417,-0.641 1.007,-0.9531 1.773,-0.9309 0.766,0.0274 1.7,0.3715 2.636,0.727 0.942,0.3555 1.876,0.6996 2.642,0.7269 0.765,0.0227 1.355,-0.2894 1.772,-0.93 0.414,-0.6446 0.665,-1.6051 0.907,-2.5821 0.242,-0.9769 0.492,-1.9371 0.906,-2.5816 0.419,-0.641 1.008,-0.9535 1.774,-0.9297 0.765,0.0238 1.699,0.3707 2.64,0.7266"
         style="fill:none;stroke:#f04759;stroke-width:0.612;stroke-linecap:butt;stroke-linejoin:miter;stroke-miterlimit:4;stroke-dasharray:none;stroke-opacity:1"
         id="path1046" /><path
         d="m 151.43,175.805 c -9.539,-90.9523 41.859,-102.5183 60.316,-101.8394 11.703,0.434 18.113,8.3321 19.875,15.4852 l 2.121,8.6008"
         style="fill:none;stroke:#000000;stroke-width:0.8;stroke-linecap:butt;stroke-linejoin:miter;stroke-miterlimit:4;stroke-dasharray:none;stroke-opacity:1"
         id="path1048" /><path
         d="m 232.977,94.9461 1.168,-1.9371 -0.211,5.8199 -2.895,-5.0551 z"
         style="fill:#000000;fill-opacity:1;fill-rule:evenodd;stroke:none;stroke-width:0.1"
         id="path1050" /><path
         d="m 232.977,94.9465 1.168,-1.9375 -0.211,5.8203 -2.895,-5.0547 z"
         style="fill:none;stroke:#000000;stroke-width:0.4;stroke-linecap:butt;stroke-linejoin:miter;stroke-miterlimit:4;stroke-dasharray:none;stroke-opacity:1"
         id="path1052" /><path
         d="m 275.613,176.599 c 0.953,0.32 1.899,0.633 2.664,0.629 0.766,-0.004 1.344,-0.336 1.739,-0.992 0.39,-0.66 0.605,-1.629 0.812,-2.615 0.207,-0.983 0.418,-1.956 0.813,-2.612 0.394,-0.66 0.972,-0.988 1.738,-0.992 0.766,-0.004 1.711,0.304 2.664,0.629 0.953,0.32 1.895,0.633 2.664,0.629 0.766,-0.004 1.344,-0.336 1.734,-0.992 0.395,-0.662 0.61,-1.629 0.817,-2.614 0.203,-0.984 0.418,-1.957 0.812,-2.614 0.391,-0.655 0.973,-0.987 1.739,-0.991 0.765,-0.004 1.711,0.305 2.66,0.629 0.953,0.32 1.898,0.633 2.664,0.628 0.765,-0.003 1.347,-0.335 1.738,-0.992 0.395,-0.66 0.606,-1.628 0.813,-2.613 0.207,-0.984 0.421,-1.957 0.812,-2.613 0.395,-0.657 0.973,-0.989 1.738,-0.992 0.766,-0.004 1.711,0.304 2.664,0.628 0.954,0.321 1.899,0.632 2.664,0.63 0.766,-0.005 1.344,-0.336 1.739,-0.993 0.39,-0.66 0.605,-1.63 0.812,-2.613 0.207,-0.984 0.418,-1.958 0.813,-2.613 0.394,-0.656 0.972,-0.989 1.738,-0.992 0.766,-0.004 1.711,0.304 2.664,0.629"
         style="fill:none;stroke:#f04759;stroke-width:0.612;stroke-linecap:butt;stroke-linejoin:miter;stroke-miterlimit:4;stroke-dasharray:none;stroke-opacity:1"
         id="path1054" /><path
         d="m 279.598,218.619 c 0.664,0.752 1.328,1.492 1.996,1.871 0.664,0.379 1.332,0.381 2,0.006 0.668,-0.375 1.34,-1.108 2.008,-1.858 0.668,-0.75 1.339,-1.488 2.007,-1.859 0.668,-0.375 1.336,-0.375 2,0.004 0.668,0.378 1.332,1.117 1.996,1.871 0.665,0.757 1.329,1.496 1.997,1.875 0.664,0.379 1.332,0.379 2,0.004 0.668,-0.372 1.339,-1.11 2.007,-1.86 0.668,-0.75 1.34,-1.484 2.008,-1.859 0.668,-0.375 1.336,-0.371 2,0.007 0.668,0.38 1.332,1.118 1.996,1.872 0.664,0.753 1.328,1.496 1.996,1.871 0.664,0.379 1.332,0.382 2,0.007 0.668,-0.375 1.34,-1.109 2.008,-1.859 0.668,-0.75 1.34,-1.488 2.008,-1.859 0.668,-0.375 1.336,-0.375 2,0.004 0.668,0.379 1.332,1.117 1.996,1.875 0.664,0.754 1.328,1.492 1.996,1.871 0.664,0.379 1.332,0.379 2,0.008 0.668,-0.375 1.34,-1.115 2.008,-1.865 0.668,-0.75 1.34,-1.483 2.008,-1.858 0.668,-0.375 1.336,-0.371 2,0.008 0.668,0.379 1.332,1.117 1.996,1.871"
         style="fill:none;stroke:#f04759;stroke-width:0.612;stroke-linecap:butt;stroke-linejoin:miter;stroke-miterlimit:4;stroke-dasharray:none;stroke-opacity:1"
         id="path1056" /><path
         d="m 344.305,313.919 c 0.984,0.192 1.965,0.368 2.722,0.258 0.758,-0.109 1.285,-0.516 1.586,-1.223 0.297,-0.703 0.375,-1.695 0.446,-2.699 0.07,-1.004 0.148,-1.992 0.445,-2.7 0.301,-0.702 0.828,-1.112 1.586,-1.222 0.758,-0.109 1.738,0.071 2.726,0.258 0.989,0.188 1.965,0.367 2.723,0.258 0.758,-0.109 1.285,-0.516 1.586,-1.223 0.301,-0.703 0.379,-1.696 0.445,-2.699 0.071,-1.004 0.149,-1.997 0.45,-2.699 0.296,-0.707 0.824,-1.113 1.582,-1.223 0.757,-0.109 1.738,0.071 2.726,0.258 0.988,0.188 1.965,0.367 2.723,0.258 0.758,-0.11 1.289,-0.516 1.586,-1.223 0.301,-0.703 0.379,-1.695 0.445,-2.699 0.07,-1.004 0.148,-1.996 0.449,-2.699 0.297,-0.707 0.824,-1.113 1.582,-1.223 0.762,-0.109 1.739,0.069 2.727,0.258 0.988,0.186 1.965,0.367 2.722,0.258 0.758,-0.11 1.29,-0.52 1.586,-1.223 0.301,-0.707 0.379,-1.695 0.446,-2.699 0.07,-1.004 0.148,-1.996 0.449,-2.7 0.297,-0.706 0.824,-1.113 1.586,-1.222 0.758,-0.109 1.734,0.065 2.723,0.258"
         style="fill:none;stroke:#f04759;stroke-width:0.612;stroke-linecap:butt;stroke-linejoin:miter;stroke-miterlimit:4;stroke-dasharray:none;stroke-opacity:1"
         id="path1058" /><path
         d="M 369.75,50.2668 322.535,76.1965"
         style="fill:none;stroke:#000000;stroke-width:0.612;stroke-linecap:butt;stroke-linejoin:miter;stroke-miterlimit:4;stroke-dasharray:none;stroke-opacity:1"
         id="path1096" /><path
         d="m 324.68,75.0211 1.66,0.4801 -4.344,0.9918 3.168,-3.1371 z"
         style="fill:#000000;fill-opacity:1;fill-rule:evenodd;stroke:none;stroke-width:0.1"
         id="path1098" /><path
         d="m 324.679,75.0207 1.66,0.4801 -4.343,0.9926 3.168,-3.1368 z"
         style="fill:none;stroke:#000000;stroke-width:0.306;stroke-linecap:butt;stroke-linejoin:miter;stroke-miterlimit:4;stroke-dasharray:none;stroke-opacity:1"
         id="path1100" /><path
         d="m 289.656,21.6805 -1.715,24.0351"
         style="fill:none;stroke:#000000;stroke-width:0.612;stroke-linecap:butt;stroke-linejoin:miter;stroke-miterlimit:4;stroke-dasharray:none;stroke-opacity:1"
         id="path1136" /><path
         d="m 288.113,43.2738 1.309,-1.1316 -1.527,4.1828 -0.915,-4.359 z"
         style="fill:#000000;fill-opacity:1;fill-rule:evenodd;stroke:none;stroke-width:0.1"
         id="path1138" /><path
         d="m 288.113,43.2742 1.309,-1.1324 -1.528,4.1836 -0.914,-4.359 z"
         style="fill:none;stroke:#000000;stroke-width:0.306;stroke-linecap:butt;stroke-linejoin:miter;stroke-miterlimit:4;stroke-dasharray:none;stroke-opacity:1"
         id="path1140" /><path
         d="m 280.965,141.571 10.172,20.048"
         style="fill:none;stroke:#000000;stroke-width:0.8;stroke-linecap:butt;stroke-linejoin:miter;stroke-miterlimit:4;stroke-dasharray:none;stroke-opacity:1"
         id="path1166" /><path
         d="m 289.688,158.767 0.703,-2.153 1.109,5.719 -3.961,-4.27 z"
         style="fill:#000000;fill-opacity:1;fill-rule:evenodd;stroke:none;stroke-width:0.1"
         id="path1168" /><path
         d="m 289.688,158.767 0.702,-2.153 1.11,5.719 -3.96,-4.269 z"
         style="fill:none;stroke:#000000;stroke-width:0.4;stroke-linecap:butt;stroke-linejoin:miter;stroke-miterlimit:4;stroke-dasharray:none;stroke-opacity:1"
         id="path1170" /><path
         d="m 296.965,170.996 c 5.297,10.193 9.535,14.134 5.887,41.767"
         style="fill:none;stroke:#000000;stroke-width:0.8;stroke-linecap:butt;stroke-linejoin:miter;stroke-miterlimit:4;stroke-dasharray:none;stroke-opacity:1"
         id="path1172" /><path
         d="m 303.27,209.591 1.796,-1.379 -2.32,5.344 -0.851,-5.762 z"
         style="fill:#000000;fill-opacity:1;fill-rule:evenodd;stroke:none;stroke-width:0.1"
         id="path1174" /><path
         d="m 303.27,209.591 1.797,-1.379 -2.321,5.343 -0.851,-5.761 z"
         style="fill:none;stroke:#000000;stroke-width:0.4;stroke-linecap:butt;stroke-linejoin:miter;stroke-miterlimit:4;stroke-dasharray:none;stroke-opacity:1"
         id="path1176" /><path
         d="m 339.719,303.204 c -1.18,-2.226 -3.301,-3.414 -4.731,-2.652 -1.433,0.761 -1.64,3.179 -0.457,5.406 1.18,2.223 3.297,3.41 4.731,2.648 1.433,-0.757 1.636,-3.179 0.457,-5.402 z"
         style="fill:#00ffff;fill-opacity:1;fill-rule:nonzero;stroke:none;stroke-width:0.1"
         id="path1246" /><path
         d="m 339.719,303.204 c -1.18,-2.227 -3.302,-3.414 -4.73,-2.652 -1.434,0.761 -1.641,3.179 -0.458,5.406 1.18,2.223 3.297,3.41 4.731,2.649 1.433,-0.758 1.637,-3.18 0.457,-5.403 z"
         style="fill:none;stroke:#000000;stroke-width:0.522246;stroke-linecap:butt;stroke-linejoin:miter;stroke-miterlimit:4;stroke-dasharray:none;stroke-opacity:1"
         id="path1248" /><path
         d="m 369.531,317.552 c 1.223,-1.903 1.133,-4.137 -0.195,-4.992 -1.328,-0.852 -3.398,0 -4.617,1.906 -1.223,1.902 -1.137,4.137 0.195,4.988 1.328,0.856 3.395,0.004 4.617,-1.902 z"
         style="fill:#ff2a2a;fill-opacity:1;fill-rule:nonzero;stroke:none;stroke-width:0.1"
         id="path1250" /><path
         d="m 369.531,317.551 c 1.223,-1.901 1.133,-4.136 -0.195,-4.992 -1.329,-0.851 -3.398,10e-4 -4.617,1.907 -1.223,1.902 -1.137,4.136 0.195,4.988 1.328,0.856 3.395,0.004 4.617,-1.903 z"
         style="fill:none;stroke:#000000;stroke-width:0.523872;stroke-linecap:butt;stroke-linejoin:miter;stroke-miterlimit:4;stroke-dasharray:none;stroke-opacity:1"
         id="path1252" /><path
         d="m 388.137,293.001 c -0.571,-1.609 -3.024,-2.207 -5.477,-1.332 -2.453,0.871 -3.976,2.883 -3.406,4.492 0.574,1.606 3.023,2.203 5.476,1.332 2.454,-0.875 3.981,-2.883 3.407,-4.492 z"
         style="fill:#ffff00;fill-opacity:1;fill-rule:nonzero;stroke:none;stroke-width:0.1"
         id="path1254" /><path
         d="m 388.137,293.001 c -0.571,-1.61 -3.024,-2.208 -5.476,-1.332 -2.454,0.871 -3.978,2.883 -3.407,4.493 0.575,1.605 3.023,2.203 5.476,1.331 2.454,-0.875 3.981,-2.883 3.407,-4.492 z"
         style="fill:none;stroke:#000000;stroke-width:0.523871;stroke-linecap:butt;stroke-linejoin:miter;stroke-miterlimit:4;stroke-dasharray:none;stroke-opacity:1"
         id="path1256" /><path
         d="m 316.871,272.036 c -1.183,-2.223 -3.301,-3.41 -4.734,-2.652 -1.434,0.762 -1.637,3.183 -0.457,5.406 1.183,2.227 3.3,3.41 4.734,2.652 1.434,-0.761 1.637,-3.183 0.457,-5.406 z"
         style="fill:#00ffff;fill-opacity:1;fill-rule:nonzero;stroke:none;stroke-width:0.1"
         id="path1310" /><path
         d="m 316.871,272.036 c -1.183,-2.223 -3.3,-3.41 -4.735,-2.652 -1.433,0.762 -1.636,3.183 -0.456,5.406 1.183,2.226 3.301,3.411 4.734,2.653 1.433,-0.763 1.637,-3.184 0.457,-5.407 z"
         style="fill:none;stroke:#000000;stroke-width:0.522246;stroke-linecap:butt;stroke-linejoin:miter;stroke-miterlimit:4;stroke-dasharray:none;stroke-opacity:1"
         id="path1312" /><path
         d="m 322.805,269.157 c -0.91,-2.074 -2.817,-3.238 -4.266,-2.601 -1.445,0.632 -1.879,2.828 -0.973,4.898 0.911,2.07 2.821,3.234 4.266,2.602 1.445,-0.633 1.883,-2.828 0.973,-4.899 z"
         style="fill:#ff2a2a;fill-opacity:1;fill-rule:nonzero;stroke:none;stroke-width:0.1"
         id="path1314" /><path
         d="m 322.804,269.157 c -0.909,-2.074 -2.816,-3.239 -4.265,-2.602 -1.446,0.633 -1.879,2.829 -0.973,4.899 0.911,2.07 2.82,3.235 4.266,2.601 1.445,-0.632 1.883,-2.828 0.972,-4.898 z"
         style="fill:none;stroke:#000000;stroke-width:0.523872;stroke-linecap:butt;stroke-linejoin:miter;stroke-miterlimit:4;stroke-dasharray:none;stroke-opacity:1"
         id="path1316" /><path
         d="m 325.035,263.552 c -1.582,0.636 -2.074,3.113 -1.101,5.527 0.976,2.414 3.046,3.852 4.632,3.215 1.582,-0.641 2.075,-3.117 1.102,-5.531 -0.977,-2.414 -3.051,-3.852 -4.633,-3.211 z"
         style="fill:#ffff00;fill-opacity:1;fill-rule:nonzero;stroke:none;stroke-width:0.1"
         id="path1318" /><path
         d="m 325.035,263.552 c -1.581,0.637 -2.074,3.114 -1.102,5.527 0.977,2.415 3.047,3.851 4.633,3.215 1.583,-0.64 2.075,-3.117 1.102,-5.531 -0.977,-2.414 -3.05,-3.852 -4.633,-3.211 z"
         style="fill:none;stroke:#000000;stroke-width:0.523872;stroke-linecap:butt;stroke-linejoin:miter;stroke-miterlimit:4;stroke-dasharray:none;stroke-opacity:1"
         id="path1320" /><path
         d="m 304.77,225.908 c -1.696,3.25 -2.407,5.019 -0.879,8.503 1.031,2.352 1.89,3.821 1.89,3.821"
         style="fill:none;stroke:#000000;stroke-width:0.8;stroke-linecap:butt;stroke-linejoin:miter;stroke-miterlimit:4;stroke-dasharray:none;stroke-opacity:1"
         id="path1322" /><path
         d="m 304.164,235.47 0.574,-2.192 1.446,5.645 -4.207,-4.027 z"
         style="fill:#000000;fill-opacity:1;fill-rule:evenodd;stroke:none;stroke-width:0.1"
         id="path1324" /><path
         d="m 304.164,235.47 0.574,-2.191 1.446,5.644 -4.207,-4.027 z"
         style="fill:none;stroke:#000000;stroke-width:0.400001;stroke-linecap:butt;stroke-linejoin:miter;stroke-miterlimit:4;stroke-dasharray:none;stroke-opacity:1"
         id="path1326" /><path
         d="m 310.426,250.454 6.769,14.75"
         style="fill:none;stroke:#000000;stroke-width:0.8;stroke-linecap:butt;stroke-linejoin:miter;stroke-miterlimit:4;stroke-dasharray:none;stroke-opacity:1"
         id="path1328" /><path
         d="m 315.859,262.294 0.789,-2.121 0.879,5.758 -3.789,-4.422 z"
         style="fill:#000000;fill-opacity:1;fill-rule:evenodd;stroke:none;stroke-width:0.1"
         id="path1330" /><path
         d="m 315.859,262.293 0.79,-2.121 0.879,5.759 -3.79,-4.422 z"
         style="fill:none;stroke:#000000;stroke-width:0.4;stroke-linecap:butt;stroke-linejoin:miter;stroke-miterlimit:4;stroke-dasharray:none;stroke-opacity:1"
         id="path1332" /><path
         d="m 318.051,254.591 c -0.571,-1.61 -3.024,-2.207 -5.477,-1.332 -2.453,0.871 -3.976,2.883 -3.406,4.492 0.57,1.605 3.023,2.203 5.477,1.332 2.453,-0.871 3.976,-2.883 3.406,-4.492 z"
         style="fill:#ffff00;fill-opacity:1;fill-rule:nonzero;stroke:none;stroke-width:0.1"
         id="path1334" /><path
         d="m 318.05,254.591 c -0.57,-1.61 -3.023,-2.207 -5.476,-1.332 -2.453,0.871 -3.976,2.883 -3.406,4.493 0.571,1.605 3.024,2.202 5.476,1.332 2.454,-0.872 3.977,-2.884 3.406,-4.493 z"
         style="fill:none;stroke:#000000;stroke-width:0.523871;stroke-linecap:butt;stroke-linejoin:miter;stroke-miterlimit:4;stroke-dasharray:none;stroke-opacity:1"
         id="path1336" /><path
         d="m 470.453,378.642 c 0,-19.434 -15.656,-35.188 -34.969,-35.188 -19.316,0 -34.972,15.754 -34.972,35.188 0,19.437 15.656,35.191 34.972,35.191 19.313,0 34.969,-15.754 34.969,-35.191 z"
         style="fill:none;stroke:#000000;stroke-width:1.836;stroke-linecap:butt;stroke-linejoin:miter;stroke-miterlimit:4;stroke-dasharray:none;stroke-opacity:1"
         id="path1362" /><path
         d="m 418.945,395.119 c 1.004,-0.016 2,-0.04 2.719,-0.298 0.723,-0.261 1.156,-0.766 1.309,-1.516 0.148,-0.753 0.027,-1.737 -0.11,-2.734 -0.133,-0.995 -0.254,-1.984 -0.105,-2.734 0.152,-0.754 0.586,-1.258 1.308,-1.516 0.719,-0.261 1.715,-0.284 2.719,-0.296 1.004,-0.016 2,-0.039 2.719,-0.297 0.723,-0.262 1.156,-0.766 1.308,-1.52 0.153,-0.75 0.028,-1.734 -0.105,-2.73 -0.137,-1 -0.258,-1.984 -0.109,-2.734 0.152,-0.755 0.59,-1.258 1.308,-1.516 0.719,-0.262 1.715,-0.285 2.719,-0.301 1.008,-0.012 2,-0.035 2.723,-0.297 0.718,-0.259 1.156,-0.761 1.304,-1.516 0.153,-0.75 0.028,-1.738 -0.105,-2.734 -0.133,-0.996 -0.258,-1.98 -0.106,-2.734 0.149,-0.75 0.586,-1.254 1.305,-1.516 0.723,-0.259 1.715,-0.281 2.723,-0.297 1.004,-0.012 2,-0.035 2.719,-0.296 0.722,-0.258 1.156,-0.762 1.308,-1.516 0.149,-0.75 0.027,-1.738 -0.109,-2.734 -0.133,-0.997 -0.254,-1.982 -0.106,-2.735 0.153,-0.75 0.586,-1.254 1.309,-1.515 0.719,-0.258 1.715,-0.282 2.719,-0.298"
         style="fill:none;stroke:#f04759;stroke-width:0.612;stroke-linecap:butt;stroke-linejoin:miter;stroke-miterlimit:4;stroke-dasharray:none;stroke-opacity:1"
         id="path1364" /><path
         d="m 416.625,369.063 c -1.18,-2.222 -3.297,-3.41 -4.73,-2.648 -1.434,0.758 -1.637,3.18 -0.457,5.402 1.179,2.227 3.3,3.414 4.73,2.653 1.434,-0.762 1.641,-3.18 0.457,-5.407 z"
         style="fill:#00ffff;fill-opacity:1;fill-rule:nonzero;stroke:none;stroke-width:0.1"
         id="path1366" /><path
         d="m 416.625,369.064 c -1.179,-2.224 -3.297,-3.41 -4.73,-2.649 -1.434,0.758 -1.637,3.18 -0.457,5.402 1.179,2.227 3.3,3.415 4.73,2.653 1.434,-0.762 1.641,-3.18 0.457,-5.406 z"
         style="fill:none;stroke:#000000;stroke-width:0.522246;stroke-linecap:butt;stroke-linejoin:miter;stroke-miterlimit:4;stroke-dasharray:none;stroke-opacity:1"
         id="path1368" /><path
         d="m 461.887,377.833 c -0.571,-1.605 -3.024,-2.203 -5.477,-1.332 -2.453,0.871 -3.976,2.883 -3.406,4.492 0.574,1.61 3.027,2.207 5.48,1.332 2.454,-0.871 3.977,-2.883 3.403,-4.492 z"
         style="fill:#ffff00;fill-opacity:1;fill-rule:nonzero;stroke:none;stroke-width:0.1"
         id="path1370" /><path
         d="m 461.887,377.834 c -0.571,-1.607 -3.023,-2.204 -5.477,-1.333 -2.453,0.871 -3.976,2.883 -3.406,4.492 0.575,1.609 3.028,2.207 5.481,1.333 2.452,-0.871 3.976,-2.883 3.402,-4.492 z"
         style="fill:none;stroke:#000000;stroke-width:0.523871;stroke-linecap:butt;stroke-linejoin:miter;stroke-miterlimit:4;stroke-dasharray:none;stroke-opacity:1"
         id="path1372" /><path
         d="m 434.402,399.954 c 1.223,-1.902 1.137,-4.137 -0.195,-4.992 -1.328,-0.852 -3.395,0 -4.617,1.906 -1.219,1.903 -1.133,4.137 0.195,4.988 1.328,0.856 3.399,0.004 4.617,-1.902 z"
         style="fill:#ff2a2a;fill-opacity:1;fill-rule:nonzero;stroke:none;stroke-width:0.1"
         id="path1374" /><path
         d="m 434.403,399.954 c 1.222,-1.902 1.136,-4.137 -0.196,-4.991 -1.328,-0.852 -3.394,-0.002 -4.617,1.905 -1.219,1.902 -1.133,4.137 0.195,4.989 1.328,0.855 3.399,0.004 4.618,-1.903 z"
         style="fill:none;stroke:#000000;stroke-width:0.523872;stroke-linecap:butt;stroke-linejoin:miter;stroke-miterlimit:4;stroke-dasharray:none;stroke-opacity:1"
         id="path1376" /><path
         d="m 326.184,277.121 c 8.949,12.705 20.55,16.833 25.961,20.103"
         style="fill:none;stroke:#000000;stroke-width:0.8;stroke-linecap:butt;stroke-linejoin:miter;stroke-miterlimit:4;stroke-dasharray:none;stroke-opacity:1"
         id="path1378" /><path
         d="m 349.406,295.571 -0.543,-2.199 3.969,4.266 -5.621,-1.528 z"
         style="fill:#000000;fill-opacity:1;fill-rule:evenodd;stroke:none;stroke-width:0.1"
         id="path1380" /><path
         d="m 349.406,295.571 -0.543,-2.2 3.969,4.267 -5.621,-1.527 z"
         style="fill:none;stroke:#000000;stroke-width:0.4;stroke-linecap:butt;stroke-linejoin:miter;stroke-miterlimit:4;stroke-dasharray:none;stroke-opacity:1"
         id="path1382" /><path
         d="m 387.262,318.615 c 14.484,12.074 16.402,14.683 28.386,25.351"
         style="fill:none;stroke:#000000;stroke-width:0.8;stroke-linecap:butt;stroke-linejoin:miter;stroke-miterlimit:4;stroke-dasharray:none;stroke-opacity:1"
         id="path1384" /><path
         d="m 413.258,341.841 -0.129,-2.262 3.117,4.922 L 411,341.97 Z"
         style="fill:#000000;fill-opacity:1;fill-rule:evenodd;stroke:none;stroke-width:0.1"
         id="path1386" /><path
         d="m 413.258,341.841 -0.13,-2.262 3.117,4.922 -5.246,-2.531 z"
         style="fill:none;stroke:#000000;stroke-width:0.4;stroke-linecap:butt;stroke-linejoin:miter;stroke-miterlimit:4;stroke-dasharray:none;stroke-opacity:1"
         id="path1388" /><path
         d="M 99.6051,373.208 C 114.086,361.13 104.188,358.021 116.172,347.349"
         style="fill:none;stroke:#000000;stroke-width:0.8;stroke-linecap:butt;stroke-linejoin:miter;stroke-miterlimit:4;stroke-dasharray:none;stroke-opacity:1"
         id="path1390" /><path
         d="m 113.781,349.478 -2.258,-0.133 5.247,-2.528 -3.122,4.918 z"
         style="fill:#000000;fill-opacity:1;fill-rule:evenodd;stroke:none;stroke-width:0.1"
         id="path1392" /><path
         d="m 113.781,349.477 -2.258,-0.132 5.247,-2.527 -3.122,4.917 z"
         style="fill:none;stroke:#000000;stroke-width:0.4;stroke-linecap:butt;stroke-linejoin:miter;stroke-miterlimit:4;stroke-dasharray:none;stroke-opacity:1"
         id="path1394" /><path
         d="m 99.852,217.388 54.421,-10.621"
         style="fill:none;stroke:#000000;stroke-width:0.612;stroke-linecap:butt;stroke-linejoin:miter;stroke-miterlimit:4;stroke-dasharray:none;stroke-opacity:1"
         id="path1412" /><path
         d="m 151.871,207.235 -1.437,-0.968 4.441,0.382 -3.973,2.02 z"
         style="fill:#000000;fill-opacity:1;fill-rule:evenodd;stroke:none;stroke-width:0.1"
         id="path1414" /><path
         d="m 151.871,207.235 -1.438,-0.968 4.442,0.383 -3.973,2.019 z"
         style="fill:none;stroke:#000000;stroke-width:0.306;stroke-linecap:butt;stroke-linejoin:miter;stroke-miterlimit:4;stroke-dasharray:none;stroke-opacity:1"
         id="path1416" /><path
         d="m 235.07,111.357 c 30.352,-7.988 39.774,10.014 42.176,18.156 0.512,1.738 0.879,3.496 0.879,3.496"
         style="fill:none;stroke:#000000;stroke-width:0.8;stroke-linecap:butt;stroke-linejoin:miter;stroke-miterlimit:4;stroke-dasharray:none;stroke-opacity:1"
         id="path1438" /><path
         d="m 277.473,129.876 1.238,-1.891 -0.422,5.809 -2.711,-5.156 z"
         style="fill:#000000;fill-opacity:1;fill-rule:evenodd;stroke:none;stroke-width:0.1"
         id="path1440" /><path
         d="m 277.473,129.876 1.238,-1.891 -0.422,5.808 -2.711,-5.155 z"
         style="fill:none;stroke:#000000;stroke-width:0.4;stroke-linecap:butt;stroke-linejoin:miter;stroke-miterlimit:4;stroke-dasharray:none;stroke-opacity:1"
         id="path1442" /><path
         d="M 285.52,76.5367 C 260.059,99.5945 274.215,122.759 274.215,122.759"
         style="fill:none;stroke:#000000;stroke-width:0.8;stroke-linecap:butt;stroke-linejoin:miter;stroke-miterlimit:4;stroke-dasharray:none;stroke-opacity:1"
         id="path1444" /><path
         d="m 272.238,118.548 c -2.316,0.992 -3.676,3.004 -3.039,4.492 0.637,1.492 3.031,1.898 5.348,0.91 2.316,-0.988 3.676,-3 3.039,-4.492 -0.641,-1.492 -3.031,-1.898 -5.348,-0.91 z"
         style="fill:#00ffff;fill-opacity:1;fill-rule:nonzero;stroke:none;stroke-width:0.1"
         id="path1446" /><path
         d="m 272.238,118.548 c -2.317,0.991 -3.675,3.003 -3.039,4.492 0.637,1.492 3.031,1.898 5.348,0.91 2.316,-0.989 3.676,-3 3.039,-4.492 -0.641,-1.492 -3.031,-1.899 -5.348,-0.91 z"
         style="fill:none;stroke:#000000;stroke-width:0.522247;stroke-linecap:butt;stroke-linejoin:miter;stroke-miterlimit:4;stroke-dasharray:none;stroke-opacity:1"
         id="path1448" /><text
         xml:space="preserve"
         style="font-weight:bold;font-size:13.1343px;line-height:1.25;font-family:'Fira Code';-inkscape-font-specification:'Fira Code, Bold';stroke-width:1.23135"
         x="23.769562"
         y="-374.8342"
         id="text5804"
         transform="scale(1,-1)"><tspan
           sodipodi:role="line"
           id="tspan5802"
           style="font-weight:normal;font-size:13.1343px;stroke-width:1.23135"
           x="23.769562"
           y="-374.8342">PR</tspan></text><text
         xml:space="preserve"
         style="font-weight:bold;font-size:13.1343px;line-height:1.25;font-family:'Fira Code';-inkscape-font-specification:'Fira Code, Bold';stroke-width:1.23135"
         x="68.097984"
         y="-448.71487"
         id="text11024"
         transform="scale(1,-1)"><tspan
           sodipodi:role="line"
           id="tspan11022"
           style="font-weight:normal;font-size:13.1343px;stroke-width:1.23135"
           x="68.097984"
           y="-448.71487">RT</tspan></text><text
         xml:space="preserve"
         style="font-weight:bold;font-size:13.1343px;line-height:1.25;font-family:'Fira Code';-inkscape-font-specification:'Fira Code, Bold';stroke-width:1.23135"
         x="120.6848"
         y="-430.5596"
         id="text11028"
         transform="scale(1,-1)"><tspan
           sodipodi:role="line"
           id="tspan11026"
           style="font-weight:normal;font-size:13.1343px;stroke-width:1.23135"
           x="120.6848"
           y="-430.5596">IN</tspan></text><text
         xml:space="preserve"
         style="font-weight:bold;font-size:13.1343px;line-height:1.25;font-family:'Fira Code';-inkscape-font-specification:'Fira Code, Bold';stroke-width:1.23135"
         x="9.2802887"
         y="-431.23544"
         id="text12176"
         transform="scale(1,-1)"><tspan
           sodipodi:role="line"
           id="tspan12174"
           style="font-weight:normal;font-size:13.1343px;stroke-width:1.23135"
           x="9.2802887"
           y="-431.23544">Viral </tspan><tspan
           sodipodi:role="line"
           style="font-weight:normal;font-size:13.1343px;stroke-width:1.23135"
           x="9.2802887"
           y="-414.81757"
           id="tspan12464">RNA</tspan></text><text
         xml:space="preserve"
         style="font-weight:bold;font-size:13.1343px;line-height:1.25;font-family:'Fira Code';-inkscape-font-specification:'Fira Code, Bold';stroke-width:1.23135"
         x="118.71898"
         y="-383.76849"
         id="text12792"
         transform="scale(1,-1)"><tspan
           sodipodi:role="line"
           id="tspan12790"
           style="font-weight:bold;font-size:13.1343px;stroke-width:1.23135"
           x="118.71898"
           y="-383.76849">HIV virion</tspan></text><text
         xml:space="preserve"
         style="font-weight:bold;font-size:13.1343px;line-height:1.25;font-family:'Fira Code';-inkscape-font-specification:'Fira Code, Bold';stroke-width:1.23135"
         x="84.513657"
         y="-44.860615"
         id="text13512"
         transform="scale(1,-1)"><tspan
           sodipodi:role="line"
           id="tspan13510"
           style="font-weight:bold;font-size:13.1343px;stroke-width:1.23135"
           x="84.513657"
           y="-44.860615">Host cell</tspan></text><text
         xml:space="preserve"
         style="font-weight:bold;font-size:13.1343px;line-height:1.25;font-family:'Fira Code';-inkscape-font-specification:'Fira Code, Bold';stroke-width:1.23135"
         x="409.31628"
         y="-433.02216"
         id="text15008"
         transform="scale(1,-1)"><tspan
           sodipodi:role="line"
           id="tspan15006"
           style="font-weight:bold;font-size:13.1343px;stroke-width:1.23135"
           x="409.31628"
           y="-433.02216">New HIV </tspan><tspan
           sodipodi:role="line"
           style="font-weight:bold;font-size:13.1343px;stroke-width:1.23135"
           x="409.31628"
           y="-416.60428"
           id="tspan15032">virion</tspan></text><text
         xml:space="preserve"
         style="font-weight:bold;font-size:13.1343px;line-height:1.25;font-family:'Fira Code';-inkscape-font-specification:'Fira Code, Bold';stroke-width:1.23135"
         x="60.7099"
         y="-224.61014"
         id="text16089"
         transform="scale(1,-1)"><tspan
           sodipodi:role="line"
           id="tspan16087"
           style="font-weight:normal;font-size:13.1343px;stroke-width:1.23135"
           x="60.7099"
           y="-224.61014">Viral</tspan><tspan
           sodipodi:role="line"
           style="font-weight:normal;font-size:13.1343px;stroke-width:1.23135"
           x="60.7099"
           y="-208.19226"
           id="tspan16113">DNA</tspan></text><text
         xml:space="preserve"
         style="font-weight:bold;font-size:13.1343px;line-height:1.25;font-family:'Fira Code';-inkscape-font-specification:'Fira Code, Bold';stroke-width:1.23135"
         x="247.87448"
         y="-10.356077"
         id="text16407"
         transform="scale(1,-1)"><tspan
           sodipodi:role="line"
           style="font-weight:normal;font-size:13.1343px;stroke-width:1.23135"
           x="247.87448"
           y="-10.356077"
           id="tspan16405">Cell nucleus</tspan></text><text
         xml:space="preserve"
         style="font-weight:bold;font-size:13.1343px;line-height:1.25;font-family:'Fira Code';-inkscape-font-specification:'Fira Code, Bold';stroke-width:1.23135"
         x="346.38205"
         y="-37.445667"
         id="text17397"
         transform="scale(1,-1)"><tspan
           sodipodi:role="line"
           style="font-weight:normal;font-size:13.1343px;stroke-width:1.23135"
           x="346.38205"
           y="-37.445667"
           id="tspan17395">Host cell DNA</tspan></text><text
         xml:space="preserve"
         style="font-weight:bold;font-size:9.85076px;line-height:1.25;font-family:'Fira Code';-inkscape-font-specification:'Fira Code, Bold';stroke-width:1.23135"
         x="177.67915"
         y="-343.48019"
         id="text17689"
         transform="scale(1,-1)"><tspan
           sodipodi:role="line"
           id="tspan17687"
           style="font-style:italic;font-weight:normal;font-size:9.85076px;stroke-width:1.23135"
           x="177.67915"
           y="-343.48019">fusion and </tspan><tspan
           sodipodi:role="line"
           style="font-style:italic;font-weight:normal;font-size:9.85076px;stroke-width:1.23135"
           x="177.67915"
           y="-331.16675"
           id="tspan17713">entry</tspan></text><text
         xml:space="preserve"
         style="font-weight:bold;font-size:9.85076px;line-height:1.25;font-family:'Fira Code';-inkscape-font-specification:'Fira Code, Bold';stroke-width:1.23135"
         x="186.08261"
         y="-254.2661"
         id="text20163"
         transform="scale(1,-1)"><tspan
           sodipodi:role="line"
           style="font-style:italic;font-weight:normal;font-size:9.85076px;stroke-width:1.23135"
           x="186.08261"
           y="-254.2661"
           id="tspan20161">reverse</tspan><tspan
           sodipodi:role="line"
           style="font-style:italic;font-weight:normal;font-size:9.85076px;stroke-width:1.23135"
           x="186.08261"
           y="-241.95265"
           id="tspan20189">transcription</tspan></text><text
         xml:space="preserve"
         style="font-weight:bold;font-size:9.85076px;line-height:1.25;font-family:'Fira Code';-inkscape-font-specification:'Fira Code, Bold';stroke-width:1.23135"
         x="311.68002"
         y="-227.17651"
         id="text20509"
         transform="scale(1,-1)"><tspan
           sodipodi:role="line"
           style="font-style:italic;font-weight:normal;font-size:9.85076px;stroke-width:1.23135"
           x="311.68002"
           y="-227.17651"
           id="tspan20507">translation</tspan></text><text
         xml:space="preserve"
         style="font-weight:bold;font-size:9.85076px;line-height:1.25;font-family:'Fira Code';-inkscape-font-specification:'Fira Code, Bold';stroke-width:1.23135"
         x="289.51593"
         y="-138.51965"
         id="text23005"
         transform="scale(1,-1)"><tspan
           sodipodi:role="line"
           style="font-style:italic;font-weight:normal;font-size:9.85076px;stroke-width:1.23135"
           x="289.51593"
           y="-138.51965"
           id="tspan23003">transcription</tspan></text><text
         xml:space="preserve"
         style="font-weight:bold;font-size:9.85076px;line-height:1.25;font-family:'Fira Code';-inkscape-font-specification:'Fira Code, Bold';stroke-width:1.23135"
         x="244.28189"
         y="-272.21628"
         id="text28225"
         transform="scale(1,-1)"><tspan
           sodipodi:role="line"
           style="font-style:italic;font-weight:normal;font-size:9.85076px;stroke-width:1.23135"
           x="244.28189"
           y="-272.21628"
           id="tspan28223">targeted</tspan><tspan
           sodipodi:role="line"
           style="font-style:italic;font-weight:normal;font-size:9.85076px;stroke-width:1.23135"
           x="244.28189"
           y="-259.90283"
           id="tspan29633">proteolysis</tspan></text><text
         xml:space="preserve"
         style="font-weight:bold;font-size:9.85076px;line-height:1.25;font-family:'Fira Code';-inkscape-font-specification:'Fira Code, Bold';stroke-width:1.23135"
         x="196.98788"
         y="-125.13046"
         id="text28229"
         transform="scale(1,-1)"><tspan
           sodipodi:role="line"
           style="font-style:italic;font-weight:normal;font-size:9.85076px;stroke-width:1.23135"
           x="196.98788"
           y="-125.13046"
           id="tspan28227">integration</tspan></text><g
         id="g33334"><path
           id="path33117"
           style="fill:none;fill-opacity:1;fill-rule:nonzero;stroke:#000000;stroke-width:1.10821;stroke-miterlimit:4;stroke-dasharray:none;stroke-opacity:1"
           d="m 304.04902,252.26459 c -1.4333,0.0129 -3.03648,-1.32775 -3.85998,-3.36456 -0.973,-2.41399 -0.48053,-4.89062 1.10148,-5.52663 1.05732,-0.42839 2.33485,0.0717 3.35734,1.17124 -0.16536,-1.70261 0.40417,-3.16603 1.56804,-3.63393 1.05732,-0.42839 2.33485,0.0717 3.35734,1.17123 -0.16536,-1.7026 0.40417,-3.16602 1.56804,-3.63392 1.582,-0.641 3.65497,0.79665 4.63198,3.21065 0.97299,2.41399 0.48052,4.89042 -1.10149,5.53142 -1.05919,0.42542 -2.33403,-0.0755 -3.35494,-1.17362 0.16354,1.70052 -0.40767,3.16519 -1.57044,3.63631 -1.05919,0.42542 -2.33403,-0.0755 -3.35494,-1.17362 0.16354,1.70052 -0.40767,3.16519 -1.57044,3.63632 -0.24781,0.0995 -0.50656,0.1467 -0.77199,0.14911 z" /><path
           d="m 311.1412,238.44728 c -1.582,0.636 -2.074,3.113 -1.101,5.527 0.976,2.414 3.046,3.852 4.632,3.215 1.582,-0.641 2.075,-3.117 1.102,-5.531 -0.977,-2.414 -3.051,-3.852 -4.633,-3.211 z"
           style="fill:#ffff00;fill-opacity:1;fill-rule:nonzero;stroke:none;stroke-width:0.1"
           id="path29609" /><path
           d="m 306.21582,240.90997 c -1.582,0.636 -2.074,3.113 -1.101,5.527 0.976,2.414 3.046,3.852 4.632,3.215 1.582,-0.641 2.075,-3.117 1.102,-5.531 -0.977,-2.414 -3.051,-3.852 -4.633,-3.211 z"
           style="fill:#ff2a2a;fill-opacity:1;fill-rule:nonzero;stroke:none;stroke-width:0.1"
           id="path31198" /><path
           d="m 301.29044,243.37266 c -1.582,0.636 -2.074,3.113 -1.101,5.527 0.976,2.414 3.046,3.852 4.632,3.215 1.582,-0.641 2.075,-3.117 1.102,-5.531 -0.977,-2.414 -3.051,-3.852 -4.633,-3.211 z"
           style="fill:#00ffff;fill-opacity:1;fill-rule:nonzero;stroke:none;stroke-width:0.1"
           id="path31200" /></g><text
         xml:space="preserve"
         style="font-weight:bold;font-size:9.85076px;line-height:1.25;font-family:'Fira Code';-inkscape-font-specification:'Fira Code, Bold';stroke-width:1.23135"
         x="396.85855"
         y="-272.06219"
         id="text33340"
         transform="scale(1,-1)"><tspan
           sodipodi:role="line"
           style="font-style:italic;font-weight:normal;font-size:9.85076px;stroke-width:1.23135"
           x="396.85855"
           y="-272.06219"
           id="tspan33338">assembly and </tspan><tspan
           sodipodi:role="line"
           style="font-style:italic;font-weight:normal;font-size:9.85076px;stroke-width:1.23135"
           x="396.85855"
           y="-259.74875"
           id="tspan33366">release</tspan></text><path
         d="m 296.965,170.996 c 5.297,10.193 9.535,14.134 5.887,41.767"
         style="fill:none;stroke:#000000;stroke-width:0.8;stroke-linecap:butt;stroke-linejoin:miter;stroke-miterlimit:4;stroke-dasharray:none;stroke-opacity:1"
         id="path34429" /><path
         id="path34464"
         style="fill:none;stroke:#000000;stroke-width:0.65;stroke-linecap:butt;stroke-linejoin:miter;stroke-miterlimit:4;stroke-dasharray:none;stroke-opacity:1;marker-end:url(#Arrow1Mend)"
         d="m 293.57121,177.75045 c 3.91246,-13.98467 3.38258,-29.35115 2.85267,-44.71851"
         transform="matrix(1.2313452,0,0,-1.2313452,0.15585342,455.20805)" /><path
         id="path35065"
         style="fill:none;stroke:#000000;stroke-width:0.65;stroke-linecap:butt;stroke-linejoin:miter;stroke-miterlimit:4;stroke-dasharray:none;stroke-opacity:1"
         d="m 245.4559,233.31191 c 17.66413,-13.86143 35.32776,-27.72247 43.82255,-44.43558 0.26221,-0.51589 0.51569,-1.0345 0.7607,-1.55574"
         transform="matrix(1.2313452,0,0,-1.2313452,0.15585342,455.20805)" /></g></g></svg>
