<?xml version="1.0" encoding="UTF-8" standalone="no"?>
<!-- Created with Inkscape (http://www.inkscape.org/) -->

<svg
   version="1.1"
   id="svg824"
   xml:space="preserve"
   width="366.71933"
   height="129.19942"
   viewBox="0 0 366.71933 129.19942"
   sodipodi:docname="DNA.svg"
   inkscape:version="1.1 (c4e8f9e, 2021-05-24)"
   xmlns:inkscape="http://www.inkscape.org/namespaces/inkscape"
   xmlns:sodipodi="http://sodipodi.sourceforge.net/DTD/sodipodi-0.dtd"
   xmlns="http://www.w3.org/2000/svg"
   xmlns:svg="http://www.w3.org/2000/svg"><defs
     id="defs828"><rect
       x="369.96597"
       y="-19.419027"
       width="106.13503"
       height="31.137407"
       id="rect8460" /><clipPath
       clipPathUnits="userSpaceOnUse"
       id="clipPath892"><path
         d="M 0,0 H 829 V 285 H 0 Z"
         id="path890" /></clipPath></defs><sodipodi:namedview
     id="namedview826"
     pagecolor="#505050"
     bordercolor="#eeeeee"
     borderopacity="1"
     inkscape:pageshadow="0"
     inkscape:pageopacity="0"
     inkscape:pagecheckerboard="0"
     showgrid="false"
     fit-margin-top="2"
     fit-margin-left="2"
     fit-margin-right="2"
     fit-margin-bottom="2"
     lock-margins="true"
     inkscape:zoom="6.7580845"
     inkscape:cx="181.56032"
     inkscape:cy="67.400755"
     inkscape:window-width="3440"
     inkscape:window-height="1387"
     inkscape:window-x="0"
     inkscape:window-y="25"
     inkscape:window-maximized="1"
     inkscape:current-layer="g830" /><g
     id="g830"
     inkscape:groupmode="layer"
     inkscape:label="BLASSEL_memoire_IODAA_12-09-2018"
     transform="matrix(1.3333333,0,0,-1.3333333,-213.50135,492.24034)"><path
       d="m 161.79355,311.60815 c 3.23373,9.85798 6.46903,19.65457 9.70278,26.62353 3.23527,6.9706 6.46929,11.02888 9.70432,11.02888 h 8.47833"
       style="fill:none;stroke:#000000;stroke-width:0.35263;stroke-linecap:butt;stroke-linejoin:miter;stroke-miterlimit:4;stroke-dasharray:none;stroke-opacity:1"
       id="path896" /><path
       d="m 185.4398,347.032 c 1.82083,-1.87338 3.64306,-4.874 5.46491,-8.80032 3.23398,-6.96896 6.46898,-16.76555 9.703,-26.62353 3.23533,-9.85712 6.46902,-19.65338 9.70435,-26.62261 3.235,-6.97027 6.46902,-11.02852 9.70402,-11.02852 3.23402,0 6.46902,4.05825 9.70304,11.02852 3.235,6.96923 6.46902,16.76549 9.70402,26.62261 3.23533,9.85798 6.46902,19.65457 9.70435,26.62353 3.23369,6.9706 6.46902,11.02888 9.70271,11.02888 h 8.4783"
       style="fill:none;stroke:#000000;stroke-width:0.35263;stroke-linecap:butt;stroke-linejoin:miter;stroke-miterlimit:4;stroke-dasharray:none;stroke-opacity:1"
       id="path898" /><path
       d="m 263.06935,347.032 c 1.82217,-1.87338 3.64303,-4.874 5.4652,-8.80032 3.235,-6.96896 6.46902,-16.76555 9.70402,-26.62353 3.23402,-9.85712 6.46902,-19.65338 9.70304,-26.62261 3.235,-6.97027 6.46902,-11.02852 9.70402,-11.02852 3.23533,0 6.46902,4.05825 9.70435,11.02852 3.23369,6.96923 6.46902,16.76549 9.70271,26.62261 3.23533,9.85798 6.47034,19.65457 9.70435,26.62353 3.23501,6.9706 6.46902,11.02888 9.70402,11.02888 h 8.47732"
       style="fill:none;stroke:#000000;stroke-width:0.35263;stroke-linecap:butt;stroke-linejoin:miter;stroke-miterlimit:4;stroke-dasharray:none;stroke-opacity:1"
       id="path900" /><path
       d="m 340.70054,347.032 c 1.82053,-1.87338 3.6427,-4.87532 5.46356,-8.80032 3.23533,-6.96896 6.47034,-16.76555 9.70435,-26.62353 3.23501,-9.85712 6.46902,-19.65338 9.70402,-26.62261 3.23402,-6.97027 6.46902,-11.02852 9.70304,-11.02852 3.235,0 6.47034,4.05825 9.70402,11.02852 3.23533,6.96923 6.46902,16.76549 9.70435,26.62261"
       style="fill:none;stroke:#000000;stroke-width:0.35263;stroke-linecap:butt;stroke-linejoin:miter;stroke-miterlimit:4;stroke-dasharray:none;stroke-opacity:1"
       id="path902" /><path
       d="m 375.27551,273.95702 h 8.4783 c 3.235,0 6.46902,4.05825 9.70402,11.02852 3.23402,6.96923 6.46902,16.76549 9.70304,26.62261"
       style="fill:none;stroke:#000000;stroke-width:0.35263;stroke-linecap:butt;stroke-linejoin:miter;stroke-miterlimit:4;stroke-dasharray:none;stroke-opacity:1"
       id="path904" /><path
       d="m 354.6424,338.23168 c 3.23533,-6.96896 6.46902,-16.76555 9.70435,-26.62353 3.23369,-9.85712 6.46902,-19.65338 9.70271,-26.62261 1.82217,-3.92632 3.64434,-6.92796 5.4652,-8.80136"
       style="fill:none;stroke:#000000;stroke-width:0.35263;stroke-linecap:butt;stroke-linejoin:miter;stroke-miterlimit:4;stroke-dasharray:none;stroke-opacity:1"
       id="path906" /><path
       d="m 344.93838,349.26056 c 3.235,0 6.46902,-4.05828 9.70402,-11.02888"
       style="fill:none;stroke:#000000;stroke-width:0.35263;stroke-linecap:butt;stroke-linejoin:miter;stroke-miterlimit:4;stroke-dasharray:none;stroke-opacity:1"
       id="path908" /><path
       d="m 335.23534,338.23168 c 3.23402,6.9706 6.46902,11.02888 9.70304,11.02888"
       style="fill:none;stroke:#000000;stroke-width:0.35263;stroke-linecap:butt;stroke-linejoin:miter;stroke-miterlimit:4;stroke-dasharray:none;stroke-opacity:1"
       id="path910" /><path
       d="m 297.64563,273.95702 h 8.4783 c 3.23402,0 6.46902,4.05825 9.70304,11.02852 3.23533,6.96923 6.46902,16.76549 9.70435,26.62261 3.235,9.85798 6.46902,19.65457 9.70402,26.62353"
       style="fill:none;stroke:#000000;stroke-width:0.35263;stroke-linecap:butt;stroke-linejoin:miter;stroke-miterlimit:4;stroke-dasharray:none;stroke-opacity:1"
       id="path912" /><path
       d="m 277.01285,338.23168 c 3.23369,-6.96896 6.46902,-16.76555 9.70271,-26.62353 3.23533,-9.85712 6.46935,-19.65338 9.70435,-26.62261 1.82217,-3.92632 3.64303,-6.92796 5.46487,-8.80136"
       style="fill:none;stroke:#000000;stroke-width:0.35263;stroke-linecap:butt;stroke-linejoin:miter;stroke-miterlimit:4;stroke-dasharray:none;stroke-opacity:1"
       id="path914" /><path
       d="m 267.3085,349.26056 c 3.23402,0 6.46902,-4.05828 9.70435,-11.02888"
       style="fill:none;stroke:#000000;stroke-width:0.35263;stroke-linecap:butt;stroke-linejoin:miter;stroke-miterlimit:4;stroke-dasharray:none;stroke-opacity:1"
       id="path916" /><path
       d="m 257.60448,338.23168 c 3.235,6.9706 6.46902,11.02888 9.70402,11.02888"
       style="fill:none;stroke:#000000;stroke-width:0.35263;stroke-linecap:butt;stroke-linejoin:miter;stroke-miterlimit:4;stroke-dasharray:none;stroke-opacity:1"
       id="path918" /><path
       d="m 220.01608,273.95702 h 8.47699 c 3.23533,0 6.46902,4.05825 9.70435,11.02852 3.23369,6.96923 6.46902,16.76549 9.70402,26.62261 3.23402,9.85798 6.46902,19.65457 9.70304,26.62353"
       style="fill:none;stroke:#000000;stroke-width:0.35263;stroke-linecap:butt;stroke-linejoin:miter;stroke-miterlimit:4;stroke-dasharray:none;stroke-opacity:1"
       id="path920" /><path
       d="m 199.38199,338.23168 c 3.235,-6.96896 6.46902,-16.76555 9.70402,-26.62353 3.23402,-9.85712 6.46902,-19.65338 9.70435,-26.62261 1.82086,-3.92632 3.6427,-6.92668 5.46356,-8.80007"
       style="fill:none;stroke:#000000;stroke-width:0.35263;stroke-linecap:butt;stroke-linejoin:miter;stroke-miterlimit:4;stroke-dasharray:none;stroke-opacity:1"
       id="path922" /><path
       d="m 189.67898,349.26056 c 3.23399,0 6.46899,-4.05828 9.70301,-11.02888"
       style="fill:none;stroke:#000000;stroke-width:0.35263;stroke-linecap:butt;stroke-linejoin:miter;stroke-miterlimit:4;stroke-dasharray:none;stroke-opacity:1"
       id="path924" /><path
       d="m 179.97493,338.23168 c 3.23375,6.9706 6.46902,11.02888 9.70405,11.02888"
       style="fill:none;stroke:#000000;stroke-width:0.35263;stroke-linecap:butt;stroke-linejoin:miter;stroke-miterlimit:4;stroke-dasharray:none;stroke-opacity:1"
       id="path926" /><path
       d="m 170.27061,311.60815 c 3.2353,9.85798 6.46902,19.65457 9.70432,26.62353"
       style="fill:none;stroke:#000000;stroke-width:0.35263;stroke-linecap:butt;stroke-linejoin:miter;stroke-miterlimit:4;stroke-dasharray:none;stroke-opacity:1"
       id="path928" /><path
       d="m 161.79355,311.60815 h 8.47706"
       style="fill:none;stroke:#000000;stroke-width:0.35263;stroke-linecap:butt;stroke-linejoin:miter;stroke-miterlimit:4;stroke-dasharray:none;stroke-opacity:1"
       id="path930" /><path
       d="m 394.68388,311.60815 h 8.47699"
       style="fill:none;stroke:#000000;stroke-width:0.35263;stroke-linecap:butt;stroke-linejoin:miter;stroke-miterlimit:4;stroke-dasharray:none;stroke-opacity:1"
       id="path932" /><path
       d="m 192.13066,311.60815 c 3.23375,9.85798 6.46908,19.65457 9.70277,26.62353 3.23533,6.9706 6.47034,11.02888 9.70435,11.02888 h 8.4783"
       style="fill:none;stroke:#000000;stroke-width:0.35263;stroke-linecap:butt;stroke-linejoin:miter;stroke-miterlimit:4;stroke-dasharray:none;stroke-opacity:1"
       id="path934" /><path
       d="m 215.77693,347.032 c 1.82217,-1.87338 3.64303,-4.874 5.46487,-8.80032 3.23402,-6.96896 6.46902,-16.76555 9.70304,-26.62353 3.23533,-9.85712 6.47034,-19.65338 9.70435,-26.62261 3.23501,-6.97027 6.46902,-11.02852 9.70402,-11.02852 3.23402,0 6.46902,4.05825 9.70304,11.02852 3.235,6.96923 6.47034,16.76549 9.70402,26.62261 3.23533,9.85798 6.46902,19.65457 9.70435,26.62353 3.23369,6.9706 6.46902,11.02888 9.70271,11.02888 h 8.4783"
       style="fill:none;stroke:#000000;stroke-width:0.35263;stroke-linecap:butt;stroke-linejoin:miter;stroke-miterlimit:4;stroke-dasharray:none;stroke-opacity:1"
       id="path936" /><path
       d="m 293.40648,347.032 c 1.82217,-1.87338 3.64435,-4.874 5.4652,-8.80032 3.23501,-6.96896 6.46902,-16.76555 9.70403,-26.62353 3.23401,-9.85712 6.46902,-19.65338 9.70303,-26.62261 3.23501,-6.97027 6.47034,-11.02852 9.70403,-11.02852 3.23533,0 6.46902,4.05825 9.70435,11.02852 3.23369,6.96923 6.46902,16.76549 9.70402,26.62261 3.23402,9.85798 6.46902,19.65457 9.70304,26.62353 3.235,6.9706 6.46902,11.02888 9.70402,11.02888 h 8.47731"
       style="fill:none;stroke:#000000;stroke-width:0.35263;stroke-linecap:butt;stroke-linejoin:miter;stroke-miterlimit:4;stroke-dasharray:none;stroke-opacity:1"
       id="path938" /><path
       d="m 371.03735,347.032 c 1.82086,-1.87338 3.64303,-4.87532 5.4652,-8.80032 3.23369,-6.96896 6.46902,-16.76555 9.70271,-26.62353 3.23533,-9.85712 6.46935,-19.65338 9.70435,-26.62261 3.23402,-6.97027 6.46902,-11.02852 9.70435,-11.02852 3.23369,0 6.46902,4.05825 9.70271,11.02852 3.23533,6.96923 6.46902,16.76549 9.70435,26.62261"
       style="fill:none;stroke:#000000;stroke-width:0.35263;stroke-linecap:butt;stroke-linejoin:miter;stroke-miterlimit:4;stroke-dasharray:none;stroke-opacity:1"
       id="path940" /><path
       d="m 405.61396,273.95702 h 8.47698 c 3.23501,0 6.46902,4.05825 9.70403,11.02852 3.23401,6.96923 6.46902,16.76549 9.70303,26.62261"
       style="fill:none;stroke:#000000;stroke-width:0.35263;stroke-linecap:butt;stroke-linejoin:miter;stroke-miterlimit:4;stroke-dasharray:none;stroke-opacity:1"
       id="path942" /><path
       d="m 384.97953,338.23168 c 3.23533,-6.96896 6.46902,-16.76555 9.70435,-26.62353 3.23369,-9.85712 6.46902,-19.65338 9.70271,-26.62261 1.82218,-3.92632 3.64435,-6.92796 5.4652,-8.80136"
       style="fill:none;stroke:#000000;stroke-width:0.35263;stroke-linecap:butt;stroke-linejoin:miter;stroke-miterlimit:4;stroke-dasharray:none;stroke-opacity:1"
       id="path944" /><path
       d="m 375.27551,349.26056 c 3.235,0 6.47034,-4.05828 9.70402,-11.02888"
       style="fill:none;stroke:#000000;stroke-width:0.35263;stroke-linecap:butt;stroke-linejoin:miter;stroke-miterlimit:4;stroke-dasharray:none;stroke-opacity:1"
       id="path946" /><path
       d="m 365.57247,338.23168 c 3.23402,6.9706 6.46902,11.02888 9.70304,11.02888"
       style="fill:none;stroke:#000000;stroke-width:0.35263;stroke-linecap:butt;stroke-linejoin:miter;stroke-miterlimit:4;stroke-dasharray:none;stroke-opacity:1"
       id="path948" /><path
       d="m 327.98277,273.95702 h 8.47829 c 3.23402,0 6.46902,4.05825 9.70304,11.02852 3.23533,6.96923 6.47034,16.76549 9.70435,26.62261 3.23501,9.85798 6.46902,19.65457 9.70402,26.62353"
       style="fill:none;stroke:#000000;stroke-width:0.35263;stroke-linecap:butt;stroke-linejoin:miter;stroke-miterlimit:4;stroke-dasharray:none;stroke-opacity:1"
       id="path950" /><path
       d="m 307.34998,338.23168 c 3.23369,-6.96896 6.46902,-16.76555 9.70271,-26.62353 3.23533,-9.85712 6.47034,-19.65338 9.70435,-26.62261 1.82217,-3.92632 3.64303,-6.92796 5.46488,-8.80136"
       style="fill:none;stroke:#000000;stroke-width:0.35263;stroke-linecap:butt;stroke-linejoin:miter;stroke-miterlimit:4;stroke-dasharray:none;stroke-opacity:1"
       id="path952" /><path
       d="m 297.64563,349.26056 c 3.23533,0 6.46902,-4.05828 9.70435,-11.02888"
       style="fill:none;stroke:#000000;stroke-width:0.35263;stroke-linecap:butt;stroke-linejoin:miter;stroke-miterlimit:4;stroke-dasharray:none;stroke-opacity:1"
       id="path954" /><path
       d="m 287.94161,338.23168 c 3.235,6.9706 6.46902,11.02888 9.70402,11.02888"
       style="fill:none;stroke:#000000;stroke-width:0.35263;stroke-linecap:butt;stroke-linejoin:miter;stroke-miterlimit:4;stroke-dasharray:none;stroke-opacity:1"
       id="path956" /><path
       d="m 250.35321,273.95702 h 8.47699 c 3.23533,0 6.46902,4.05825 9.70435,11.02852 3.235,6.96923 6.46902,16.76549 9.70402,26.62261 3.23402,9.85798 6.46902,19.65457 9.70304,26.62353"
       style="fill:none;stroke:#000000;stroke-width:0.35263;stroke-linecap:butt;stroke-linejoin:miter;stroke-miterlimit:4;stroke-dasharray:none;stroke-opacity:1"
       id="path958" /><path
       d="m 229.71912,338.23168 c 3.235,-6.96896 6.46902,-16.76555 9.70402,-26.62353 3.23533,-9.85712 6.46902,-19.65338 9.70435,-26.62261 1.82086,-3.92632 3.6427,-6.92668 5.46356,-8.80007"
       style="fill:none;stroke:#000000;stroke-width:0.35263;stroke-linecap:butt;stroke-linejoin:miter;stroke-miterlimit:4;stroke-dasharray:none;stroke-opacity:1"
       id="path960" /><path
       d="m 220.01608,349.26056 c 3.23402,0 6.46902,-4.05828 9.70304,-11.02888"
       style="fill:none;stroke:#000000;stroke-width:0.35263;stroke-linecap:butt;stroke-linejoin:miter;stroke-miterlimit:4;stroke-dasharray:none;stroke-opacity:1"
       id="path962" /><path
       d="m 210.31206,338.23168 c 3.235,6.9706 6.46902,11.02888 9.70402,11.02888"
       style="fill:none;stroke:#000000;stroke-width:0.35263;stroke-linecap:butt;stroke-linejoin:miter;stroke-miterlimit:4;stroke-dasharray:none;stroke-opacity:1"
       id="path964" /><path
       d="m 200.60771,311.60815 c 3.23533,9.85798 6.46902,19.65457 9.70435,26.62353"
       style="fill:none;stroke:#000000;stroke-width:0.35263;stroke-linecap:butt;stroke-linejoin:miter;stroke-miterlimit:4;stroke-dasharray:none;stroke-opacity:1"
       id="path966" /><path
       d="m 192.13066,311.60815 h 8.47705"
       style="fill:none;stroke:#000000;stroke-width:0.35263;stroke-linecap:butt;stroke-linejoin:miter;stroke-miterlimit:4;stroke-dasharray:none;stroke-opacity:1"
       id="path968" /><path
       d="M 425.02102,311.60815 H 433.498"
       style="fill:none;stroke:#000000;stroke-width:0.35263;stroke-linecap:butt;stroke-linejoin:miter;stroke-miterlimit:4;stroke-dasharray:none;stroke-opacity:1"
       id="path970" /><path
       d="m 410.0133,275.95709 c 3.47988,3.58265 6.66762,10.27095 11.48122,24.08479 1.55431,4.45974 3.02623,8.78492 3.27111,9.60951 l 0.44381,1.49753 h 3.82357 c 2.17604,0 3.8239,-0.14345 3.8239,-0.3345 0,-0.46055 -5.38937,-15.94264 -6.92694,-19.8984 -1.98368,-5.10586 -4.96099,-10.88261 -6.75756,-13.11248 -2.39761,-2.97458 -3.40307,-3.45684 -7.5641,-3.62495 l -3.45559,-0.13848 z"
       style="fill:#c8b7b7;fill-opacity:1;fill-rule:nonzero;stroke:none;stroke-width:0.032826"
       id="path972" /><path
       d="m 410.0133,275.95709 c 3.47988,3.58265 6.66762,10.27095 11.48122,24.08466 1.55431,4.45987 3.02623,8.78505 3.27111,9.60964 l 0.44381,1.49753 h 3.82357 c 2.17604,0 3.8239,-0.14345 3.8239,-0.3345 0,-0.46055 -5.38937,-15.94277 -6.92694,-19.89817 -1.98368,-5.10609 -4.96099,-10.88284 -6.75756,-13.11271 -2.39761,-2.97471 -3.40307,-3.45697 -7.5641,-3.62495 l -3.45559,-0.13861 z"
       style="fill:none;stroke:#000000;stroke-width:0.35263;stroke-linecap:butt;stroke-linejoin:miter;stroke-miterlimit:4;stroke-dasharray:none;stroke-opacity:1"
       id="path974" /><path
       d="m 247.6477,275.35841 c -1.60946,1.09377 -3.98016,4.39303 -5.82662,8.10903 -2.54533,5.12023 -4.90355,11.43782 -10.65171,28.51887 -7.33201,21.79449 -9.59274,27.41594 -13.16125,32.73868 -1.44008,2.1478 -1.53101,2.40418 -1.00776,2.85947 4.58251,3.98672 9.4936,-1.33733 15.39736,-16.68742 0.70904,-1.84253 3.71722,-10.57096 6.68699,-19.39557 7.52043,-22.34857 10.20823,-28.9611 13.58307,-33.42081 0.77305,-1.02095 1.40528,-1.91968 1.40528,-1.99649 0,-0.0771 -0.53474,-0.47072 -1.18863,-0.87451 -1.63113,-1.0094 -3.61611,-0.95285 -5.23673,0.14875 z"
       style="fill:#ffb380;fill-opacity:1;fill-rule:nonzero;stroke:none;stroke-width:0.032826"
       id="path976" /><path
       d="m 247.6477,275.35828 c -1.60946,1.09377 -3.98016,4.39316 -5.82662,8.10906 -2.54533,5.1202 -4.90355,11.43792 -10.65171,28.51897 -7.33201,21.79482 -9.59274,27.41627 -13.16125,32.73868 -1.44008,2.1478 -1.53101,2.4045 -1.00776,2.85947 4.58251,3.98672 9.4936,-1.33733 15.39736,-16.68709 0.70904,-1.84286 3.71722,-10.57129 6.68699,-19.39558 7.52043,-22.34866 10.20823,-28.96142 13.58307,-33.42126 0.77305,-1.02056 1.40528,-1.91955 1.40528,-1.99649 0,-0.0768 -0.53474,-0.47072 -1.18863,-0.87438 -1.63113,-1.00914 -3.61611,-0.95272 -5.23673,0.14862 z"
       style="fill:none;stroke:#000000;stroke-width:0.35263;stroke-linecap:butt;stroke-linejoin:miter;stroke-miterlimit:4;stroke-dasharray:none;stroke-opacity:1"
       id="path978" /><path
       d="m 325.28381,275.37123 c -3.21334,2.36833 -6.38564,8.13724 -10.36579,18.85201 -0.82853,2.22984 -3.68406,10.56035 -6.34625,18.51314 -6.7894,20.28154 -10.12092,28.40335 -13.42255,32.72982 -1.11674,1.46174 -1.15778,1.60552 -0.59744,2.09397 4.79555,4.17875 9.82975,-1.58221 16.12315,-18.45182 0.83739,-2.2453 3.69292,-10.57621 6.34592,-18.51321 6.76511,-20.23949 10.1452,-28.48575 13.45341,-32.82108 0.64766,-0.84756 1.17714,-1.60655 1.17714,-1.6863 0,-0.0794 -0.53474,-0.47431 -1.18732,-0.8781 -1.6541,-1.02222 -3.65977,-0.95913 -5.18027,0.16157 z"
       style="fill:#ffb380;fill-opacity:1;fill-rule:nonzero;stroke:none;stroke-width:0.032826"
       id="path980" /><path
       d="m 325.28381,275.3711 c -3.21334,2.36846 -6.38564,8.13727 -10.36579,18.85201 -0.82853,2.22983 -3.68406,10.56071 -6.34625,18.51327 -6.7894,20.28154 -10.12092,28.40368 -13.42255,32.72982 -1.11674,1.46174 -1.15778,1.60552 -0.59744,2.09397 4.79555,4.17908 9.82975,-1.58221 16.12315,-18.45182 0.83739,-2.2453 3.69292,-10.57588 6.34592,-18.51321 6.76511,-20.23923 10.1452,-28.48588 13.45341,-32.82121 0.64766,-0.84756 1.17714,-1.60642 1.17714,-1.68592 0,-0.0794 -0.53474,-0.47469 -1.18732,-0.87835 -1.6541,-1.02196 -3.65977,-0.95926 -5.18027,0.16144 z"
       style="fill:none;stroke:#000000;stroke-width:0.35263;stroke-linecap:butt;stroke-linejoin:miter;stroke-miterlimit:4;stroke-dasharray:none;stroke-opacity:1"
       id="path982" /><path
       d="m 402.2877,275.97389 c -4.51358,4.13417 -7.08582,9.97848 -15.81425,35.93035 -2.97732,8.85153 -6.15619,17.97618 -7.06547,20.27629 -2.09003,5.2932 -5.01614,11.15329 -6.61904,13.2512 -1.14366,1.49884 -1.19224,1.66297 -0.64733,2.13862 3.51961,3.06463 7.34351,0.59513 11.42378,-7.37797 2.6553,-5.19209 4.95837,-11.3148 10.85425,-28.86653 7.29492,-21.71506 9.5668,-27.36074 13.18554,-32.75677 0.89386,-1.3333 1.62456,-2.48363 1.62456,-2.55813 0,-0.50906 -2.53613,-1.53231 -3.79797,-1.53359 -1.28218,-10e-4 -1.75159,0.22183 -3.14407,1.49653 z"
       style="fill:#ffb380;fill-opacity:1;fill-rule:nonzero;stroke:none;stroke-width:0.032826"
       id="path984" /><path
       d="m 402.2877,275.97377 c -4.51358,4.13416 -7.08582,9.97883 -15.81425,35.93047 -2.97732,8.85153 -6.15619,17.97618 -7.06547,20.27662 -2.09003,5.29319 -5.01614,11.15296 -6.61904,13.25087 -1.14366,1.49884 -1.19224,1.66297 -0.64733,2.13862 3.51961,3.06463 7.34351,0.59513 11.42378,-7.37797 2.6553,-5.19176 4.95837,-11.3148 10.85425,-28.86653 7.29492,-21.71519 9.5668,-27.36087 13.18554,-32.75677 0.89386,-1.33343 1.62456,-2.48363 1.62456,-2.55813 0,-0.5088 -2.53613,-1.53231 -3.79797,-1.53372 -1.28218,-9e-4 -1.75159,0.22196 -3.14407,1.49654 z"
       style="fill:none;stroke:#000000;stroke-width:0.35263;stroke-linecap:butt;stroke-linejoin:miter;stroke-miterlimit:4;stroke-dasharray:none;stroke-opacity:1"
       id="path986" /><path
       d="m 226.71981,336.89927 h 1.86189 c 0.92569,0 1.67216,-0.74613 1.67216,-1.67183 v -57.70443 c 0,-0.92607 -0.74647,-1.67221 -1.67216,-1.67221 h -1.86189 c -0.9257,0 -1.67216,0.74614 -1.67216,1.67221 v 57.70443 c 0,0.9257 0.74646,1.67183 1.67216,1.67183 z"
       style="fill:#7c7ce3;fill-opacity:1;fill-rule:evenodd;stroke:none;stroke-width:0.032826"
       id="path996" /><path
       d="m 226.71981,336.8996 h 1.86189 c 0.92569,0 1.67216,-0.74646 1.67216,-1.67216 v -57.70456 c 0,-0.92568 -0.74647,-1.67221 -1.67216,-1.67221 h -1.86189 c -0.9257,0 -1.67216,0.74653 -1.67216,1.67221 v 57.70456 c 0,0.9257 0.74646,1.67216 1.67216,1.67216 z"
       style="fill:none;stroke:#000000;stroke-width:0.419569;stroke-linecap:butt;stroke-linejoin:miter;stroke-miterlimit:4;stroke-dasharray:none;stroke-opacity:1"
       id="path998" /><path
       d="m 254.77192,342.63496 h 1.34882 c 0.92209,0 1.66461,-0.74253 1.66461,-1.66428 v -63.95417 c 0,-0.92221 -0.74252,-1.66465 -1.66461,-1.66465 h -1.34882 c -0.92208,0 -1.66428,0.74244 -1.66428,1.66465 v 63.95417 c 0,0.92175 0.7422,1.66428 1.66428,1.66428 z"
       style="fill:#d95c86;fill-opacity:1;fill-rule:evenodd;stroke:none;stroke-width:0.032826"
       id="path1000" /><path
       d="m 254.77192,342.63496 h 1.34882 c 0.92209,0 1.66461,-0.7422 1.66461,-1.66428 v -63.95431 c 0,-0.92207 -0.74252,-1.66425 -1.66461,-1.66425 h -1.34882 c -0.92208,0 -1.66428,0.74218 -1.66428,1.66425 v 63.95431 c 0,0.92208 0.7422,1.66428 1.66428,1.66428 z"
       style="fill:none;stroke:#000000;stroke-width:0.417593;stroke-linecap:butt;stroke-linejoin:miter;stroke-miterlimit:4;stroke-dasharray:none;stroke-opacity:1"
       id="path1002" /><path
       d="m 255.53349,339.61792 c -1.1348,0 -2.04769,-0.69525 -2.04769,-1.55923 v -26.44693 h 4.098 v 26.44693 c 0,0.86398 -0.91421,1.55923 -2.05031,1.55923 z"
       style="fill:#e9abff;fill-opacity:1;fill-rule:evenodd;stroke:none;stroke-width:0.032826"
       id="path1004" /><path
       d="m 255.53349,339.61792 c -1.1348,0 -2.04769,-0.69493 -2.04769,-1.55923 v -26.4466 h 4.098 v 26.4466 c 0,0.8643 -0.91421,1.55923 -2.05031,1.55923 z"
       style="fill:none;stroke:#000000;stroke-width:0.378346;stroke-linecap:butt;stroke-linejoin:miter;stroke-miterlimit:4;stroke-dasharray:none;stroke-opacity:1"
       id="path1006" /><path
       d="m 268.4794,346.39977 h 1.18732 c 0.93226,0 1.68233,-0.75007 1.68233,-1.68233 v -50.2547 c 0,-0.9322 -0.75007,-1.68234 -1.68233,-1.68234 h -1.18732 c -0.93225,0 -1.68364,0.75014 -1.68364,1.68234 v 50.2547 c 0,0.93226 0.75139,1.68233 1.68364,1.68233 z"
       style="fill:#7c7ce3;fill-opacity:1;fill-rule:evenodd;stroke:none;stroke-width:0.032826"
       id="path1008" /><path
       d="m 268.4794,346.39977 h 1.18732 c 0.93226,0 1.68233,-0.75007 1.68233,-1.68233 v -50.2547 c 0,-0.93233 -0.75007,-1.68234 -1.68233,-1.68234 h -1.18732 c -0.93225,0 -1.68364,0.75001 -1.68364,1.68234 v 50.2547 c 0,0.93226 0.75139,1.68233 1.68364,1.68233 z"
       style="fill:none;stroke:#000000;stroke-width:0.36775;stroke-linecap:butt;stroke-linejoin:miter;stroke-miterlimit:4;stroke-dasharray:none;stroke-opacity:1"
       id="path1010" /><path
       d="m 331.92582,342.64776 h 0.84134 c 0.92175,0 1.66559,-0.74384 1.66559,-1.66559 v -63.97758 c 0,-0.92299 -0.74384,-1.66555 -1.66559,-1.66555 h -0.84134 c -0.92208,0 -1.66559,0.74256 -1.66559,1.66555 v 63.97758 c 0,0.92175 0.74351,1.66559 1.66559,1.66559 z"
       style="fill:#7c7ce3;fill-opacity:1;fill-rule:evenodd;stroke:none;stroke-width:0.032826"
       id="path1012" /><path
       d="m 331.92582,342.64776 h 0.84134 c 0.92175,0 1.66559,-0.74351 1.66559,-1.66559 v -63.97735 c 0,-0.92335 -0.74384,-1.66552 -1.66559,-1.66552 h -0.84134 c -0.92208,0 -1.66559,0.74217 -1.66559,1.66552 v 63.97735 c 0,0.92208 0.74351,1.66559 1.66559,1.66559 z"
       style="fill:none;stroke:#000000;stroke-width:0.394395;stroke-linecap:butt;stroke-linejoin:miter;stroke-miterlimit:4;stroke-dasharray:none;stroke-opacity:1"
       id="path1014" /><path
       d="m 346.52059,346.40371 h 0.98216 c 0.93357,0 1.68364,-0.7504 1.68364,-1.68233 v -50.2612 c 0,-0.9322 -0.75007,-1.68362 -1.68364,-1.68362 h -0.98216 c -0.93226,0 -1.68233,0.75142 -1.68233,1.68362 v 50.2612 c 0,0.93193 0.75007,1.68233 1.68233,1.68233 z"
       style="fill:#7c7ce3;fill-opacity:1;fill-rule:evenodd;stroke:none;stroke-width:0.032826"
       id="path1016" /><path
       d="m 346.52059,346.40371 h 0.98216 c 0.93357,0 1.68364,-0.75007 1.68364,-1.68233 v -50.26094 c 0,-0.93232 -0.75007,-1.68361 -1.68364,-1.68361 h -0.98216 c -0.93226,0 -1.68233,0.75129 -1.68233,1.68361 v 50.26094 c 0,0.93226 0.75007,1.68233 1.68233,1.68233 z"
       style="fill:none;stroke:#000000;stroke-width:0.359428;stroke-linecap:butt;stroke-linejoin:miter;stroke-miterlimit:4;stroke-dasharray:none;stroke-opacity:1"
       id="path1018" /><path
       d="m 289.96369,347.3921 h 1.48866 c 0.81048,0 1.46306,-0.65258 1.46306,-1.46305 v -56.16824 c 0,-0.81051 -0.65258,-1.46178 -1.46306,-1.46178 h -1.48866 c -0.80916,0 -1.46174,0.65127 -1.46174,1.46178 v 56.16824 c 0,0.81047 0.65258,1.46305 1.46174,1.46305 z"
       style="fill:#d95c86;fill-opacity:1;fill-rule:evenodd;stroke:none;stroke-width:0.032826"
       id="path1020" /><path
       d="m 289.96369,347.39243 h 1.48866 c 0.81048,0 1.46306,-0.65291 1.46306,-1.46338 v -56.16837 c 0,-0.81038 -0.65258,-1.46165 -1.46306,-1.46165 h -1.48866 c -0.80916,0 -1.46174,0.65127 -1.46174,1.46165 v 56.16837 c 0,0.81047 0.65258,1.46338 1.46174,1.46338 z"
       style="fill:none;stroke:#000000;stroke-width:0.380079;stroke-linecap:butt;stroke-linejoin:miter;stroke-miterlimit:4;stroke-dasharray:none;stroke-opacity:1"
       id="path1022" /><path
       d="m 269.07158,291.40969 c -1.25264,0 -2.26171,0.74512 -2.26171,1.67206 v 28.46776 c 0.73728,-0.3926 1.49523,-0.59251 2.25679,-0.59777 0.7655,0.008 1.52838,0.21436 2.26828,0.61319 v -28.48318 c 0,-0.92694 -1.00907,-1.67206 -2.26336,-1.67206 z"
       style="fill:#00ceff;fill-opacity:1;fill-rule:evenodd;stroke:none;stroke-width:0.032826"
       id="path1024" /><path
       d="m 269.07158,291.40992 c -1.25264,0 -2.26171,0.74476 -2.26171,1.67183 v 28.46776 c 0.73728,-0.39228 1.49523,-0.59251 2.25679,-0.59744 0.7655,0.008 1.52838,0.21403 2.26828,0.61286 v -28.48318 c 0,-0.92707 -1.00907,-1.67183 -2.26336,-1.67183 z"
       style="fill:none;stroke:#000000;stroke-width:0.391296;stroke-linecap:butt;stroke-linejoin:miter;stroke-miterlimit:4;stroke-dasharray:none;stroke-opacity:1"
       id="path1026" /><path
       d="m 305.13292,336.91733 h 1.01169 c 0.92701,0 1.67347,-0.74614 1.67347,-1.67347 v -57.73894 c 0,-0.92708 -0.74646,-1.67349 -1.67347,-1.67349 h -1.01169 c -0.92701,0 -1.67347,0.74641 -1.67347,1.67349 v 57.73894 c 0,0.92733 0.74646,1.67347 1.67347,1.67347 z"
       style="fill:#d95c86;fill-opacity:1;fill-rule:evenodd;stroke:none;stroke-width:0.032826"
       id="path1028" /><path
       d="m 305.13292,336.91733 h 1.01169 c 0.92701,0 1.67347,-0.74614 1.67347,-1.67315 v -57.73939 c 0,-0.92695 -0.74646,-1.6731 -1.67347,-1.6731 h -1.01169 c -0.92701,0 -1.67347,0.74615 -1.67347,1.6731 v 57.73939 c 0,0.92701 0.74646,1.67315 1.67347,1.67315 z"
       style="fill:none;stroke:#000000;stroke-width:0.384038;stroke-linecap:butt;stroke-linejoin:miter;stroke-miterlimit:4;stroke-dasharray:none;stroke-opacity:1"
       id="path1030" /><path
       d="m 305.72017,274.72753 c 1.05536,0 1.90555,0.65254 1.90555,1.46306 v 24.79901 h -3.8111 v -24.79901 c 0,-0.81052 0.8502,-1.46306 1.90555,-1.46306 z"
       style="fill:#e9abff;fill-opacity:1;fill-rule:evenodd;stroke:none;stroke-width:0.032826"
       id="path1032" /><path
       d="m 305.72017,274.7274 c 1.05536,0 1.90555,0.65255 1.90555,1.46307 v 24.79903 h -3.8111 v -24.79903 c 0,-0.81052 0.8502,-1.46307 1.90555,-1.46307 z"
       style="fill:none;stroke:#000000;stroke-width:0.353264;stroke-linecap:butt;stroke-linejoin:miter;stroke-miterlimit:4;stroke-dasharray:none;stroke-opacity:1"
       id="path1034" /><path
       d="m 332.34633,275.44534 c -1.16172,0 -2.09627,0.74654 -2.09627,1.67348 v 28.47656 c 0.68343,-0.39224 1.3846,-0.59254 2.09134,-0.5974 0.70904,0.008 1.41415,0.21399 2.10021,0.61293 v -28.49209 c 0,-0.92694 -0.93489,-1.67348 -2.09528,-1.67348 z"
       style="fill:#00ceff;fill-opacity:1;fill-rule:evenodd;stroke:none;stroke-width:0.032826"
       id="path1044" /><path
       d="m 332.34633,275.4456 c -1.16172,0 -2.09627,0.74615 -2.09627,1.67322 v 28.47656 c 0.68343,-0.39237 1.3846,-0.59228 2.09134,-0.59753 0.70904,0.008 1.41415,0.21399 2.10021,0.61293 v -28.49196 c 0,-0.92707 -0.93489,-1.67322 -2.09528,-1.67322 z"
       style="fill:none;stroke:#000000;stroke-width:0.376642;stroke-linecap:butt;stroke-linejoin:miter;stroke-miterlimit:4;stroke-dasharray:none;stroke-opacity:1"
       id="path1046" /><path
       d="m 381.60469,336.90321 h 1.6912 c 0.92602,0 1.67216,-0.74613 1.67216,-1.67347 v -57.70942 c 0,-0.92696 -0.74614,-1.67222 -1.67216,-1.67222 h -1.6912 c -0.927,0 -1.67215,0.74526 -1.67215,1.67222 v 57.70942 c 0,0.92734 0.74515,1.67347 1.67215,1.67347 z"
       style="fill:#d95c86;fill-opacity:1;fill-rule:evenodd;stroke:none;stroke-width:0.032826"
       id="path1048" /><path
       d="m 381.60469,336.90321 h 1.6912 c 0.92602,0 1.67216,-0.74613 1.67216,-1.67314 v -57.70988 c 0,-0.92697 -0.74614,-1.67209 -1.67216,-1.67209 h -1.6912 c -0.927,0 -1.67215,0.74512 -1.67215,1.67209 v 57.70988 c 0,0.92701 0.74515,1.67314 1.67215,1.67314 z"
       style="fill:none;stroke:#000000;stroke-width:0.412715;stroke-linecap:butt;stroke-linejoin:miter;stroke-miterlimit:4;stroke-dasharray:none;stroke-opacity:1"
       id="path1050" /><path
       d="m 162.37685,312.18359 c 0,0.18087 1.25534,3.97786 2.78892,8.43628 5.45861,15.86547 8.28627,21.98062 11.98418,25.90924 1.93378,2.05425 2.75174,2.35165 6.46505,2.35165 h 3.28917 l -1.94918,-2.049 c -3.49406,-3.67356 -6.99066,-11.33252 -12.21987,-26.77485 l -2.77609,-8.19501 -3.79039,-0.004 c -2.11561,-0.003 -3.79179,0.14246 -3.79179,0.32563 z"
       style="fill:#e9afaf;fill-opacity:1;fill-rule:nonzero;stroke:none;stroke-width:0.032826"
       id="path1052" /><path
       d="m 162.37685,312.18392 c 0,0.18054 1.25534,3.97753 2.78892,8.43595 5.45861,15.86547 8.28627,21.98062 11.98418,25.90956 1.93378,2.05393 2.75174,2.35166 6.46505,2.35166 h 3.28917 l -1.94918,-2.04933 c -3.49406,-3.67356 -6.99066,-11.33252 -12.21987,-26.77485 l -2.77609,-8.19501 -3.79039,-0.004 c -2.11561,-0.003 -3.79179,0.14213 -3.79179,0.32563 z"
       style="fill:none;stroke:#000000;stroke-width:0.35263;stroke-linecap:butt;stroke-linejoin:miter;stroke-miterlimit:4;stroke-dasharray:none;stroke-opacity:1"
       id="path1054" /><path
       d="m 217.31056,275.35841 c -1.60913,1.09377 -3.98015,4.39303 -5.82661,8.10903 -2.54533,5.12023 -4.90486,11.43782 -10.65171,28.51887 -7.33198,21.79449 -9.59274,27.41594 -13.16129,32.73868 -1.43998,2.1478 -1.53104,2.40418 -1.00773,2.85947 4.58281,3.98672 9.49361,-1.33733 15.39737,-16.68742 0.70904,-1.84253 3.71721,-10.57096 6.68698,-19.39557 7.52044,-22.34857 10.20692,-28.9611 13.58307,-33.42081 0.77306,-1.02095 1.40397,-1.91968 1.40397,-1.99649 0,-0.0771 -0.53342,-0.47072 -1.18731,-0.87451 -1.63244,-1.0094 -3.61612,-0.95285 -5.23674,0.14875 z"
       style="fill:#ffccaa;fill-opacity:1;fill-rule:nonzero;stroke:none;stroke-width:0.032826"
       id="path1056" /><path
       d="m 217.31056,275.35828 c -1.60913,1.09377 -3.98015,4.39316 -5.82661,8.10906 -2.54533,5.1202 -4.90486,11.43792 -10.65171,28.51897 -7.33198,21.79482 -9.59274,27.41627 -13.16129,32.73868 -1.43998,2.1478 -1.53104,2.4045 -1.00773,2.85947 4.58281,3.98672 9.49361,-1.33733 15.39737,-16.68709 0.70904,-1.84286 3.71721,-10.57129 6.68698,-19.39558 7.52044,-22.34866 10.20692,-28.96142 13.58307,-33.42126 0.77306,-1.02056 1.40397,-1.91955 1.40397,-1.99649 0,-0.0768 -0.53342,-0.47072 -1.18731,-0.87438 -1.63244,-1.00914 -3.61612,-0.95272 -5.23674,0.14862 z"
       style="fill:none;stroke:#000000;stroke-width:0.35263;stroke-linecap:butt;stroke-linejoin:miter;stroke-miterlimit:4;stroke-dasharray:none;stroke-opacity:1"
       id="path1058" /><path
       d="m 212.3929,347.38324 h 1.85828 c 0.80883,0 1.46174,-0.65127 1.46174,-1.46043 v -56.15442 c 0,-0.81015 -0.65291,-1.46181 -1.46174,-1.46181 h -1.85828 c -0.80883,0 -1.46174,0.65166 -1.46174,1.46181 v 56.15442 c 0,0.80916 0.65291,1.46043 1.46174,1.46043 z"
       style="fill:#d95c86;fill-opacity:1;fill-rule:evenodd;stroke:none;stroke-width:0.032826"
       id="path988" /><path
       d="m 213.32155,347.38324 c -1.32355,0 -2.39039,-0.65127 -2.39039,-1.46043 v -24.78133 h 4.78176 v 24.78133 c 0,0.80916 -1.06684,1.46043 -2.39137,1.46043 z"
       style="fill:#e9abff;fill-opacity:1;fill-rule:evenodd;stroke:none;stroke-width:0.032826"
       id="path992" /><path
       d="m 192.71539,312.18392 c 0,0.18054 1.25392,3.97753 2.78755,8.43595 5.45863,15.86547 8.28594,21.98062 11.98411,25.90956 1.93378,2.05393 2.75181,2.35166 6.46509,2.35166 h 3.28916 l -1.94921,-2.04933 c -3.494,-3.67356 -6.99062,-11.33252 -12.2198,-26.77485 l -2.7761,-8.19501 -3.79042,-0.004 c -2.11563,-0.003 -3.79038,0.14213 -3.79038,0.32563 z"
       style="fill:none;stroke:#000000;stroke-width:0.35263;stroke-linecap:butt;stroke-linejoin:miter;stroke-miterlimit:4;stroke-dasharray:none;stroke-opacity:1"
       id="path1062" /><path
       d="m 294.94668,275.37123 c -3.21334,2.36833 -6.38564,8.13724 -10.36579,18.85201 -0.82853,2.22984 -3.68407,10.56035 -6.34593,18.51314 -6.78973,20.28154 -10.12124,28.40335 -13.42288,32.72982 -1.11674,1.46174 -1.15777,1.60552 -0.59743,2.09397 4.79555,4.17875 9.82975,-1.58221 16.12315,-18.45182 0.83739,-2.2453 3.69292,-10.57621 6.34592,-18.51321 6.76511,-20.23949 10.1452,-28.48575 13.45341,-32.82108 0.64765,-0.84756 1.17714,-1.60655 1.17714,-1.6863 0,-0.0794 -0.53474,-0.47431 -1.18732,-0.8781 -1.6541,-1.02222 -3.65944,-0.95913 -5.18027,0.16157 z"
       style="fill:#ffccaa;fill-opacity:1;fill-rule:nonzero;stroke:none;stroke-width:0.032826"
       id="path1064" /><path
       d="m 294.94668,275.3711 c -3.21334,2.36846 -6.38564,8.13727 -10.36579,18.85201 -0.82853,2.22983 -3.68407,10.56071 -6.34593,18.51327 -6.78973,20.28154 -10.12124,28.40368 -13.42288,32.72982 -1.11674,1.46174 -1.15777,1.60552 -0.59743,2.09397 4.79555,4.17908 9.82975,-1.58221 16.12315,-18.45182 0.83739,-2.2453 3.69292,-10.57588 6.34592,-18.51321 6.76511,-20.23923 10.1452,-28.48588 13.45341,-32.82121 0.64765,-0.84756 1.17714,-1.60642 1.17714,-1.68592 0,-0.0794 -0.53474,-0.47469 -1.18732,-0.87835 -1.6541,-1.02196 -3.65944,-0.95926 -5.18027,0.16144 z"
       style="fill:none;stroke:#000000;stroke-width:0.35263;stroke-linecap:butt;stroke-linejoin:miter;stroke-miterlimit:4;stroke-dasharray:none;stroke-opacity:1"
       id="path1066" /><path
       d="m 253.67947,274.95693 c 2.69403,2.02737 5.82531,7.43342 9.18997,15.86803 0.96049,2.4068 4.27887,11.89289 7.37436,21.07797 8.16416,24.23084 10.67206,30.13197 14.63186,34.42758 2.0838,2.25941 2.8516,2.55025 6.74739,2.55025 h 3.37878 l -1.27464,-1.11937 c -2.57093,-2.2581 -5.24461,-6.96896 -8.31285,-14.64597 -0.97198,-2.4311 -4.23029,-11.74055 -7.23978,-20.68662 -7.60644,-22.61285 -10.37498,-29.40386 -13.97271,-34.28544 -2.39302,-3.24555 -3.5288,-3.8059 -8.01184,-3.9581 l -3.70442,-0.12579 z"
       style="fill:#c8b7b7;fill-opacity:1;fill-rule:nonzero;stroke:none;stroke-width:0.032826"
       id="path1068" /><path
       d="m 253.67947,274.9568 c 2.69403,2.02741 5.82531,7.43355 9.18997,15.86816 0.96049,2.4068 4.27887,11.89316 7.37436,21.07797 8.16416,24.23117 10.67206,30.13197 14.63186,34.42758 2.0838,2.25941 2.8516,2.55058 6.74739,2.55058 h 3.37878 l -1.27464,-1.1197 c -2.57093,-2.25777 -5.24461,-6.96896 -8.31285,-14.64597 -0.97198,-2.4311 -4.23029,-11.74022 -7.23978,-20.68662 -7.60644,-22.61298 -10.37498,-29.40359 -13.97271,-34.28557 -2.39302,-3.24516 -3.5288,-3.80551 -8.01184,-3.9581 l -3.70442,-0.12579 z"
       style="fill:none;stroke:#000000;stroke-width:0.35263;stroke-linecap:butt;stroke-linejoin:miter;stroke-miterlimit:4;stroke-dasharray:none;stroke-opacity:1"
       id="path1070" /><path
       d="m 371.95057,275.97389 c -4.51358,4.13417 -7.08582,9.97848 -15.81426,35.93035 -2.97732,8.85153 -6.1575,17.97618 -7.06514,20.27629 -2.09036,5.2932 -5.01647,11.15329 -6.61936,13.2512 -1.14366,1.49884 -1.19355,1.66297 -0.64733,2.13862 3.5196,3.06463 7.34351,0.59513 11.42246,-7.37797 2.65661,-5.19209 4.95968,-11.3148 10.85556,-28.86653 7.29492,-21.71506 9.56681,-27.36074 13.18555,-32.75677 0.89385,-1.3333 1.62456,-2.48363 1.62456,-2.55813 0,-0.50906 -2.53614,-1.53231 -3.79797,-1.53359 -1.28218,-10e-4 -1.75159,0.22183 -3.14407,1.49653 z"
       style="fill:#ffccaa;fill-opacity:1;fill-rule:nonzero;stroke:none;stroke-width:0.032826"
       id="path1072" /><path
       d="m 371.95057,275.97377 c -4.51358,4.13416 -7.08582,9.97883 -15.81426,35.93047 -2.97732,8.85153 -6.1575,17.97618 -7.06514,20.27662 -2.09036,5.29319 -5.01647,11.15296 -6.61936,13.25087 -1.14366,1.49884 -1.19355,1.66297 -0.64733,2.13862 3.5196,3.06463 7.34351,0.59513 11.42246,-7.37797 2.65661,-5.19176 4.95968,-11.3148 10.85556,-28.86653 7.29492,-21.71519 9.56681,-27.36087 13.18555,-32.75677 0.89385,-1.33343 1.62456,-2.48363 1.62456,-2.55813 0,-0.5088 -2.53614,-1.53231 -3.79797,-1.53372 -1.28218,-9e-4 -1.75159,0.22196 -3.14407,1.49654 z"
       style="fill:none;stroke:#000000;stroke-width:0.35263;stroke-linecap:butt;stroke-linejoin:miter;stroke-miterlimit:4;stroke-dasharray:none;stroke-opacity:1"
       id="path1074" /><path
       d="m 223.34234,274.95693 c 2.69272,2.02737 5.82399,7.43342 9.18997,15.86803 0.96049,2.4068 4.27887,11.89289 7.37305,21.07797 8.16546,24.23084 10.6737,30.13197 14.63317,34.42758 2.08379,2.25941 2.85192,2.55025 6.74738,2.55025 h 3.37878 l -1.27463,-1.11937 c -2.57093,-2.2581 -5.24592,-6.96896 -8.31417,-14.64597 -0.97066,-2.4311 -4.22897,-11.74055 -7.23846,-20.68662 -7.60644,-22.61285 -10.37466,-29.40386 -13.97271,-34.28544 -2.39269,-3.24555 -3.5288,-3.8059 -8.01185,-3.9581 l -3.70441,-0.12579 z"
       style="fill:#e9afaf;fill-opacity:1;fill-rule:nonzero;stroke:none;stroke-width:0.032826"
       id="path1080" /><path
       d="m 223.34234,274.9568 c 2.69272,2.02741 5.82399,7.43355 9.18997,15.86816 0.96049,2.4068 4.27887,11.89316 7.37305,21.07797 8.16546,24.23117 10.6737,30.13197 14.63317,34.42758 2.08379,2.25941 2.85192,2.55058 6.74738,2.55058 h 3.37878 l -1.27463,-1.1197 c -2.57093,-2.25777 -5.24592,-6.96896 -8.31417,-14.64597 -0.97066,-2.4311 -4.22897,-11.74022 -7.23846,-20.68662 -7.60644,-22.61298 -10.37466,-29.40359 -13.97271,-34.28557 -2.39269,-3.24516 -3.5288,-3.80551 -8.01185,-3.9581 l -3.70441,-0.12579 z"
       style="fill:none;stroke:#000000;stroke-width:0.35263;stroke-linecap:butt;stroke-linejoin:miter;stroke-miterlimit:4;stroke-dasharray:none;stroke-opacity:1"
       id="path1082" /><path
       d="m 300.80907,274.80293 c 2.42355,1.6095 5.48687,6.60008 8.45795,13.77808 1.08457,2.61849 4.57365,12.48412 7.75514,21.92287 3.18117,9.44011 6.59475,19.1996 7.58445,21.68716 3.48382,8.75141 7.15508,14.76382 9.87209,16.17041 0.67589,0.34894 2.08905,0.51931 4.30842,0.51931 h 3.30196 l -1.65673,-1.71942 c -4.21748,-4.37505 -6.89083,-10.60182 -15.30774,-35.65987 -7.41277,-22.06495 -9.99257,-28.35471 -13.68155,-33.35811 -2.39794,-3.2517 -3.5288,-3.8082 -8.01184,-3.94541 l -3.70442,-0.11284 z"
       style="fill:#e9afaf;fill-opacity:1;fill-rule:nonzero;stroke:none;stroke-width:0.032826"
       id="path1084" /><path
       d="m 300.80907,274.80318 c 2.42355,1.60912 5.48687,6.5997 8.45795,13.77783 1.08457,2.61849 4.57365,12.48438 7.75514,21.92287 3.18117,9.44011 6.59475,19.1996 7.58445,21.68716 3.48382,8.75141 7.15508,14.76382 9.87209,16.17074 0.67589,0.34861 2.08905,0.51931 4.30842,0.51931 h 3.30196 l -1.65673,-1.71975 c -4.21748,-4.37505 -6.89083,-10.60149 -15.30774,-35.65955 -7.41277,-22.0654 -9.99257,-28.3549 -13.68155,-33.35856 -2.39794,-3.2517 -3.5288,-3.80807 -8.01184,-3.94528 l -3.70442,-0.11296 z"
       style="fill:none;stroke:#000000;stroke-width:0.35263;stroke-linecap:butt;stroke-linejoin:miter;stroke-miterlimit:4;stroke-dasharray:none;stroke-opacity:1"
       id="path1086" /><path
       d="m 379.67617,275.95709 c 3.47988,3.58265 6.66761,10.27095 11.48122,24.08479 1.55431,4.45974 3.02623,8.78492 3.2698,9.60951 l 0.44512,1.49753 h 3.82357 c 2.17603,0 3.82259,-0.14345 3.82259,-0.3345 0,-0.46055 -5.38806,-15.94264 -6.92563,-19.8984 -1.98368,-5.10586 -4.961,-10.88261 -6.75756,-13.11248 -2.39761,-2.97458 -3.40439,-3.45684 -7.5641,-3.62495 l -3.45559,-0.13848 z"
       style="fill:#e9afaf;fill-opacity:1;fill-rule:nonzero;stroke:none;stroke-width:0.032826"
       id="path1088" /><path
       d="m 379.67617,275.95709 c 3.47988,3.58265 6.66761,10.27095 11.48122,24.08466 1.55431,4.45987 3.02623,8.78505 3.2698,9.60964 l 0.44512,1.49753 h 3.82357 c 2.17603,0 3.82259,-0.14345 3.82259,-0.3345 0,-0.46055 -5.38806,-15.94277 -6.92563,-19.89817 -1.98368,-5.10609 -4.961,-10.88284 -6.75756,-13.11271 -2.39761,-2.97471 -3.40439,-3.45697 -7.5641,-3.62495 l -3.45559,-0.13861 z"
       style="fill:none;stroke:#000000;stroke-width:0.35263;stroke-linecap:butt;stroke-linejoin:miter;stroke-miterlimit:4;stroke-dasharray:none;stroke-opacity:1"
       id="path1090" /><path
       d="m 382.39711,336.85331 c -1.21948,0 -2.20032,-0.65159 -2.20032,-1.46174 v -24.78625 h 4.40196 v 24.78625 c 0,0.81015 -0.98215,1.46174 -2.20164,1.46174 z"
       style="fill:#e9abff;fill-opacity:1;fill-rule:evenodd;stroke:none;stroke-width:0.032826"
       id="path1092" /><path
       d="m 382.39711,336.85331 c -1.21948,0 -2.20032,-0.65126 -2.20032,-1.46174 v -24.78625 h 4.40196 v 24.78625 c 0,0.81048 -0.98215,1.46174 -2.20164,1.46174 z"
       style="fill:none;stroke:#000000;stroke-width:0.379643;stroke-linecap:butt;stroke-linejoin:miter;stroke-miterlimit:4;stroke-dasharray:none;stroke-opacity:1"
       id="path1094" /><path
       d="m 290.61496,288.32956 c 1.22343,0 2.20689,0.65163 2.20689,1.46217 v 24.78717 h -4.41345 v -24.78717 c 0,-0.81054 0.98478,-1.46217 2.20656,-1.46217 z"
       style="fill:#e9abff;fill-opacity:1;fill-rule:evenodd;stroke:none;stroke-width:0.032826"
       id="path1096" /><path
       d="m 290.61496,288.32979 c 1.22343,0 2.20689,0.65127 2.20689,1.46181 v 24.78763 H 288.4084 V 289.7916 c 0,-0.81054 0.98478,-1.46181 2.20656,-1.46181 z"
       style="fill:none;stroke:#000000;stroke-width:0.380079;stroke-linecap:butt;stroke-linejoin:miter;stroke-miterlimit:4;stroke-dasharray:none;stroke-opacity:1"
       id="path1098" /><path
       d="m 227.65075,336.89927 c -1.4427,0 -2.6031,-0.74613 -2.6031,-1.67183 v -28.4562 c 0.84757,0.39227 1.71943,0.59251 2.59654,0.59743 0.88105,-0.008 1.75685,-0.21402 2.60835,-0.61286 v 28.47163 c 0,0.9257 -1.1604,1.67183 -2.60179,1.67183 z"
       style="fill:#00ceff;fill-opacity:1;fill-rule:evenodd;stroke:none;stroke-width:0.032826"
       id="path1100" /><path
       d="m 227.65075,336.8996 c -1.4427,0 -2.6031,-0.74646 -2.6031,-1.67216 v -28.4562 c 0.84757,0.3926 1.71943,0.59251 2.59654,0.59776 0.88105,-0.008 1.75685,-0.21435 2.60835,-0.61286 v 28.4713 c 0,0.9257 -1.1604,1.67216 -2.60179,1.67216 z"
       style="fill:none;stroke:#000000;stroke-width:0.419569;stroke-linecap:butt;stroke-linejoin:miter;stroke-miterlimit:4;stroke-dasharray:none;stroke-opacity:1"
       id="path1102" /><path
       d="m 347.17186,346.39452 c -1.19618,0 -2.16061,-0.74614 -2.16061,-1.67314 v -28.47163 c 0.70412,0.39227 1.42859,0.59251 2.15569,0.59743 0.73202,-0.008 1.46043,-0.21402 2.16684,-0.61286 v 28.48706 c 0,0.927 -0.9641,1.67314 -2.16192,1.67314 z"
       style="fill:#00ceff;fill-opacity:1;fill-rule:evenodd;stroke:none;stroke-width:0.032826"
       id="path1104" /><path
       d="m 347.17186,346.39452 c -1.19618,0 -2.16061,-0.74614 -2.16061,-1.67314 v -28.47163 c 0.70412,0.3926 1.42859,0.59251 2.15569,0.59776 0.73202,-0.008 1.46043,-0.21435 2.16684,-0.61286 v 28.48673 c 0,0.927 -0.9641,1.67314 -2.16192,1.67314 z"
       style="fill:none;stroke:#000000;stroke-width:0.382443;stroke-linecap:butt;stroke-linejoin:miter;stroke-miterlimit:4;stroke-dasharray:none;stroke-opacity:1"
       id="path1106" /><path
       d="m 347.19648,330.07015 -0.65652,-1.79 h 1.31796 z m -0.27213,0.47696 h 0.54885 l 1.3695,-3.59051 h -0.50781 l -0.32301,0.9234 h -1.62095 l -0.32826,-0.9234 h -0.50749 z"
       style="fill:#000000;fill-opacity:1;fill-rule:nonzero;stroke:none;stroke-width:0.032826"
       id="path1108" /><path
       d="m 227.4341,318.60928 -0.65652,-1.79 h 1.31797 z m -0.2718,0.47696 h 0.54852 l 1.36951,-3.59051 h -0.50782 l -0.32301,0.9234 h -1.62062 l -0.32826,-0.9234 h -0.50782 z"
       style="fill:#000000;fill-opacity:1;fill-rule:nonzero;stroke:none;stroke-width:0.032826"
       id="path1112" /><path
       d="m 257.04414,323.21772 v -0.51307 c -0.16413,0.15396 -0.33844,0.26819 -0.52325,0.34369 -0.18448,0.0745 -0.38209,0.11292 -0.58988,0.11292 -0.41033,0 -0.72578,-0.12703 -0.94375,-0.37947 -0.21534,-0.25013 -0.32301,-0.61319 -0.32301,-1.08752 0,-0.47171 0.10767,-0.83477 0.32301,-1.0872 0.21797,-0.25013 0.53342,-0.37454 0.94375,-0.37454 0.20779,0 0.4054,0.0371 0.58988,0.11292 0.18481,0.0742 0.35912,0.18973 0.52325,0.34369 v -0.50782 c -0.16807,-0.11686 -0.34763,-0.20385 -0.53868,-0.26163 -0.18842,-0.0578 -0.38833,-0.0873 -0.60006,-0.0873 -0.54359,0 -0.97329,0.16544 -1.28743,0.49764 -0.31152,0.3345 -0.46679,0.78979 -0.46679,1.36425 0,0.57708 0.15527,1.03238 0.46679,1.36425 0.31414,0.33482 0.74384,0.50289 1.28743,0.50289 0.21173,0 0.41296,-0.0295 0.60532,-0.0873 0.19104,-0.0591 0.36929,-0.14377 0.53342,-0.25637 z"
       style="fill:#000000;fill-opacity:1;fill-rule:nonzero;stroke:none;stroke-width:0.032826"
       id="path1114" /><path
       d="m 256.80287,293.96907 v 0.96439 h -0.7898 v 0.39995 h 1.27201 v -1.54384 c -0.18842,-0.13337 -0.3949,-0.2348 -0.62041,-0.30262 -0.22584,-0.0679 -0.46679,-0.10245 -0.72349,-0.10245 -0.56132,0 -0.99988,0.16413 -1.31796,0.49239 -0.31546,0.32826 -0.47204,0.78487 -0.47204,1.36947 0,0.58726 0.15658,1.0462 0.47204,1.37446 0.31808,0.32826 0.75664,0.49239 1.31796,0.49239 0.23602,0 0.45793,-0.0296 0.66703,-0.0871 0.2114,-0.059 0.40639,-0.14375 0.58463,-0.25657 v -0.51803 c -0.18218,0.15386 -0.37323,0.26813 -0.57445,0.34363 -0.20254,0.0781 -0.41427,0.11824 -0.63617,0.11824 -0.43823,0 -0.7678,-0.1231 -0.98971,-0.3693 -0.21927,-0.24619 -0.32826,-0.61319 -0.32826,-1.09773 0,-0.48228 0.10899,-0.84632 0.32826,-1.09252 0.22191,-0.24619 0.55148,-0.36929 0.98971,-0.36929 0.17069,0 0.32333,0.0155 0.45661,0.0461 0.1359,0.0308 0.25768,0.077 0.36404,0.13846 z"
       style="fill:#000000;fill-opacity:1;fill-rule:nonzero;stroke:none;stroke-width:0.032826"
       id="path1116" /><path
       d="m 225.73634,297.84024 h 3.03641 v -0.41033 h -1.27201 v -3.17975 h -0.48747 v 3.17975 h -1.27693 z"
       style="fill:#000000;fill-opacity:1;fill-rule:nonzero;stroke:none;stroke-width:0.032826"
       id="path1118" /><path
       d="m 332.4297,298.86221 -0.65652,-1.79004 h 1.3183 z m -0.2718,0.47726 h 0.54886 l 1.3695,-3.59061 h -0.50782 l -0.32301,0.92349 h -1.62095 l -0.32826,-0.92349 h -0.50782 z"
       style="fill:#000000;fill-opacity:1;fill-rule:nonzero;stroke:none;stroke-width:0.032826"
       id="path1122" /><path
       d="m 330.73194,320.7607 h 3.03641 v -0.41033 h -1.27201 v -3.17985 h -0.48714 v 3.17985 h -1.27726 z"
       style="fill:#000000;fill-opacity:1;fill-rule:nonzero;stroke:none;stroke-width:0.032826"
       id="path1124" /><path
       d="m 306.87663,317.68326 v 0.96443 h -0.78979 v 0.40015 h 1.27201 v -1.54414 c -0.18842,-0.13327 -0.3949,-0.23438 -0.62041,-0.30233 -0.22585,-0.0679 -0.46679,-0.10274 -0.72349,-0.10274 -0.56165,0 -0.99988,0.16413 -1.31796,0.49239 -0.31546,0.32826 -0.47204,0.78487 -0.47204,1.3695 0,0.58726 0.15658,1.04616 0.47204,1.37442 0.31808,0.32826 0.75631,0.49239 1.31796,0.49239 0.23602,0 0.45792,-0.0292 0.66702,-0.087 0.2114,-0.0591 0.40639,-0.14377 0.58464,-0.25637 v -0.51832 c -0.18219,0.15395 -0.37324,0.26819 -0.57446,0.34369 -0.20254,0.0784 -0.41426,0.11817 -0.63617,0.11817 -0.43855,0 -0.7678,-0.1231 -0.9897,-0.36929 -0.21928,-0.2462 -0.32826,-0.61286 -0.32826,-1.0977 0,-0.48222 0.10898,-0.84626 0.32826,-1.09245 0.2219,-0.2462 0.55115,-0.36929 0.9897,-0.36929 0.1707,0 0.32334,0.0154 0.45661,0.046 0.1359,0.0309 0.25769,0.0771 0.36404,0.13853 z"
       style="fill:#000000;fill-opacity:1;fill-rule:nonzero;stroke:none;stroke-width:0.032826"
       id="path1126" /><path
       d="m 307.1179,294.65382 v -0.51265 c -0.16413,0.1536 -0.33843,0.26786 -0.52324,0.34327 -0.18448,0.0745 -0.3821,0.11295 -0.58989,0.11295 -0.41032,0 -0.72578,-0.12707 -0.94374,-0.37944 -0.21534,-0.25016 -0.32301,-0.61289 -0.32301,-1.08759 0,-0.47164 0.10767,-0.83476 0.32301,-1.08713 0.21796,-0.25017 0.53342,-0.37454 0.94374,-0.37454 0.20779,0 0.40541,0.0374 0.58989,0.11285 0.18481,0.0745 0.35911,0.18977 0.52324,0.34376 v -0.50789 c -0.16807,-0.11643 -0.34762,-0.20375 -0.53867,-0.26159 -0.18842,-0.0578 -0.38833,-0.0869 -0.60006,-0.0869 -0.5436,0 -0.97329,0.16502 -1.28744,0.49725 -0.31151,0.33479 -0.46678,0.78976 -0.46678,1.36421 0,0.57715 0.15527,1.03248 0.46678,1.36458 0.31415,0.33453 0.74384,0.50263 1.28744,0.50263 0.21173,0 0.41295,-0.0296 0.60531,-0.0873 0.19105,-0.0589 0.36929,-0.14348 0.53342,-0.25643 z"
       style="fill:#000000;fill-opacity:1;fill-rule:nonzero;stroke:none;stroke-width:0.032826"
       id="path1128" /><path
       d="m 291.97822,326.76424 v 0.96443 h -0.79012 v 0.40015 h 1.27201 v -1.54381 c -0.18842,-0.1336 -0.3949,-0.2347 -0.62041,-0.30265 -0.22584,-0.0679 -0.46679,-0.10275 -0.72316,-0.10275 -0.56165,0 -1.00021,0.16413 -1.31829,0.49239 -0.31546,0.32826 -0.47171,0.78487 -0.47171,1.3695 0,0.58726 0.15625,1.0465 0.47171,1.37476 0.31808,0.32826 0.75664,0.49239 1.31829,0.49239 0.23569,0 0.4576,-0.0296 0.6667,-0.0873 0.2114,-0.0591 0.40638,-0.14378 0.58463,-0.25637 v -0.518 c -0.18186,0.15363 -0.37323,0.26786 -0.57446,0.34336 -0.20253,0.0785 -0.41393,0.11818 -0.63584,0.11818 -0.43855,0 -0.76812,-0.1231 -0.99003,-0.3693 -0.21928,-0.24619 -0.32826,-0.61286 -0.32826,-1.0977 0,-0.48221 0.10898,-0.84625 0.32826,-1.09245 0.22191,-0.24619 0.55148,-0.36929 0.99003,-0.36929 0.17037,0 0.32301,0.0154 0.45629,0.0463 0.1359,0.0305 0.25801,0.0768 0.36436,0.13819 z"
       style="fill:#000000;fill-opacity:1;fill-rule:nonzero;stroke:none;stroke-width:0.032826"
       id="path1130" /><path
       d="m 292.21917,302.67682 v -0.51264 c -0.16413,0.15385 -0.33844,0.26786 -0.52325,0.34362 -0.18448,0.0741 -0.38209,0.11299 -0.58988,0.11299 -0.41033,0 -0.72546,-0.12707 -0.94375,-0.3798 -0.21534,-0.24994 -0.32301,-0.61293 -0.32301,-1.08726 0,-0.47198 0.10767,-0.83474 0.32301,-1.08746 0.21829,-0.24994 0.53342,-0.37432 0.94375,-0.37432 0.20779,0 0.4054,0.0371 0.58988,0.1126 0.18481,0.0745 0.35912,0.19016 0.52325,0.34378 v -0.50791 c -0.16807,-0.11657 -0.3473,-0.20376 -0.53868,-0.2612 -0.18842,-0.0578 -0.38833,-0.0873 -0.60006,-0.0873 -0.5436,0 -0.97329,0.16541 -1.28743,0.49764 -0.31152,0.3344 -0.46646,0.78973 -0.46646,1.36419 0,0.57704 0.15494,1.03211 0.46646,1.36421 0.31414,0.33479 0.74383,0.50267 1.28743,0.50267 0.21173,0 0.41295,-0.0292 0.60531,-0.0871 0.19105,-0.0591 0.3693,-0.14375 0.53343,-0.2567 z"
       style="fill:#000000;fill-opacity:1;fill-rule:nonzero;stroke:none;stroke-width:0.032826"
       id="path1132" /><path
       d="m 267.2586,332.3102 h 3.03641 v -0.41033 H 269.023 v -3.18018 h -0.48714 v 3.18018 h -1.27726 z"
       style="fill:#000000;fill-opacity:1;fill-rule:nonzero;stroke:none;stroke-width:0.032826"
       id="path1134" /><path
       d="m 214.5755,304.72487 v 0.96413 h -0.78979 v 0.40005 h 1.272 v -1.54371 c -0.18874,-0.13337 -0.39522,-0.2348 -0.62073,-0.30275 -0.22585,-0.0678 -0.46679,-0.10232 -0.72316,-0.10232 -0.56165,0 -1.00021,0.16413 -1.31829,0.49239 -0.31546,0.32826 -0.47171,0.78447 -0.47171,1.3692 0,0.5872 0.15625,1.04643 0.47171,1.37469 0.31808,0.32826 0.75664,0.49239 1.31829,0.49239 0.23602,0 0.45759,-0.0295 0.66669,-0.0873 0.21173,-0.0587 0.40639,-0.14345 0.58464,-0.25637 v -0.51799 c -0.18186,0.15395 -0.37291,0.26786 -0.57446,0.34369 -0.20254,0.0781 -0.41394,0.11784 -0.63584,0.11784 -0.43855,0 -0.76813,-0.1231 -0.99003,-0.36929 -0.21928,-0.2462 -0.32826,-0.61286 -0.32826,-1.09764 0,-0.48201 0.10898,-0.84628 0.32826,-1.09248 0.2219,-0.24619 0.55148,-0.36929 0.99003,-0.36929 0.17037,0 0.32301,0.0154 0.45628,0.0463 0.13623,0.0308 0.25801,0.0768 0.36437,0.1385 z"
       style="fill:#000000;fill-opacity:1;fill-rule:nonzero;stroke:none;stroke-width:0.032826"
       id="path1136" /><path
       d="m 214.81644,332.29739 v -0.51307 c -0.16413,0.15396 -0.33843,0.26819 -0.52324,0.34369 -0.18448,0.0745 -0.3821,0.11292 -0.58956,0.11292 -0.41032,0 -0.72578,-0.12703 -0.94375,-0.37947 -0.21566,-0.25013 -0.32333,-0.61286 -0.32333,-1.08752 0,-0.47171 0.10767,-0.83477 0.32333,-1.0872 0.21797,-0.25013 0.53343,-0.37454 0.94375,-0.37454 0.20746,0 0.40508,0.0371 0.58956,0.11292 0.18481,0.0742 0.35911,0.18973 0.52324,0.34369 v -0.50782 c -0.16774,-0.11686 -0.3473,-0.20385 -0.53834,-0.26162 -0.18875,-0.0578 -0.38866,-0.0873 -0.60039,-0.0873 -0.5436,0 -0.97296,0.16544 -1.28711,0.49764 -0.31184,0.33483 -0.46678,0.78979 -0.46678,1.36425 0,0.57708 0.15494,1.03238 0.46678,1.36425 0.31415,0.33482 0.74351,0.50289 1.28711,0.50289 0.21173,0 0.41295,-0.0295 0.60531,-0.0873 0.19105,-0.0591 0.36929,-0.14345 0.53342,-0.25638 z"
       style="fill:#000000;fill-opacity:1;fill-rule:nonzero;stroke:none;stroke-width:0.032826"
       id="path1138" /><path
       d="m 383.77055,325.0678 v -0.51275 c -0.16413,0.15396 -0.33876,0.26786 -0.52324,0.34369 -0.18481,0.0742 -0.3821,0.11292 -0.58989,0.11292 -0.41032,0 -0.72578,-0.12703 -0.94374,-0.37979 -0.21534,-0.24981 -0.32301,-0.61286 -0.32301,-1.0872 0,-0.47204 0.10767,-0.83477 0.32301,-1.08753 0.21796,-0.2498 0.53342,-0.37421 0.94374,-0.37421 0.20779,0 0.40508,0.0371 0.58989,0.11259 0.18448,0.0745 0.35911,0.19006 0.52324,0.34369 v -0.50782 c -0.16807,-0.11653 -0.34762,-0.20385 -0.53867,-0.26129 -0.18842,-0.0578 -0.38866,-0.0873 -0.60006,-0.0873 -0.5436,0 -0.97329,0.16544 -1.28744,0.49764 -0.31152,0.3345 -0.46678,0.78979 -0.46678,1.36425 0,0.57708 0.15526,1.03205 0.46678,1.36425 0.31415,0.33482 0.74384,0.50256 1.28744,0.50256 0.2114,0 0.41295,-0.0295 0.60531,-0.087 0.19105,-0.0591 0.36929,-0.14378 0.53342,-0.2567 z"
       style="fill:#000000;fill-opacity:1;fill-rule:nonzero;stroke:none;stroke-width:0.032826"
       id="path1140" /><path
       d="m 383.66124,295.02708 v 0.96413 h -0.78979 v 0.40005 h 1.27201 v -1.5437 c -0.18843,-0.13334 -0.3949,-0.23478 -0.62042,-0.30276 -0.22584,-0.0679 -0.46678,-0.10232 -0.72315,-0.10232 -0.56165,0 -1.00021,0.16413 -1.31829,0.49239 -0.31546,0.32826 -0.47204,0.78451 -0.47204,1.36908 0,0.58729 0.15658,1.04659 0.47204,1.37485 0.31808,0.32826 0.75664,0.49239 1.31829,0.49239 0.23569,0 0.45759,-0.0296 0.66669,-0.0873 0.2114,-0.0587 0.40639,-0.14348 0.58464,-0.25647 v -0.51789 c -0.18219,0.15388 -0.37324,0.26786 -0.57446,0.34365 -0.20254,0.0781 -0.41426,0.11785 -0.63617,0.11785 -0.43822,0 -0.7678,-0.1231 -0.9897,-0.3693 -0.21928,-0.24619 -0.32826,-0.61279 -0.32826,-1.09776 0,-0.48186 0.10898,-0.84616 0.32826,-1.09235 0.2219,-0.2462 0.55148,-0.3693 0.9897,-0.3693 0.1707,0 0.32334,0.0154 0.45661,0.0463 0.1359,0.0308 0.25769,0.0768 0.36404,0.13849 z"
       style="fill:#000000;fill-opacity:1;fill-rule:nonzero;stroke:none;stroke-width:0.032826"
       id="path1142" /><path
       d="m 254.9308,342.48363 -1.50671,0.58332 1.2592,1.01301 z"
       style="fill:#000000;fill-opacity:1;fill-rule:evenodd;stroke:none;stroke-width:0.032826"
       id="path1194" /><path
       d="m 254.9308,342.48363 -1.50671,0.58365 1.2592,1.01301 z"
       style="fill:none;stroke:#000000;stroke-width:0.202166;stroke-linecap:butt;stroke-linejoin:miter;stroke-miterlimit:4;stroke-dasharray:none;stroke-opacity:1"
       id="path1196" /><path
       d="m 346.30394,339.47677 0.48845,1.33864 0.91552,-1.09376 z"
       style="fill:#000000;fill-opacity:1;fill-rule:evenodd;stroke:none;stroke-width:0.032826"
       id="path1220" /><path
       d="m 346.30394,339.4771 0.48845,1.33831 0.91519,-1.09376 z"
       style="fill:none;stroke:#000000;stroke-width:0.178363;stroke-linecap:butt;stroke-linejoin:miter;stroke-miterlimit:4;stroke-dasharray:none;stroke-opacity:1"
       id="path1222" /><text
       xml:space="preserve"
       style="font-weight:bold;font-size:8px;line-height:1.25;font-family:'Fira Code';-inkscape-font-specification:'Fira Code, Bold';stroke-width:0.75"
       x="162.88156"
       y="-360.71075"
       id="text3953"
       transform="scale(1,-1)"><tspan
         sodipodi:role="line"
         id="tspan3951"
         style="font-style:normal;font-variant:normal;font-weight:normal;font-stretch:normal;font-size:8px;font-family:Arial;-inkscape-font-specification:Arial;stroke-width:0.75"
         x="162.88156"
         y="-360.71075"
         dx="0 0 0.25110814">phosphate-sugar backbone</tspan></text><text
       xml:space="preserve"
       style="font-weight:bold;font-size:8px;line-height:1.25;font-family:'Fira Code';-inkscape-font-specification:'Fira Code, Bold';stroke-width:0.75"
       x="362.99283"
       y="-361.9537"
       id="text3953-0"
       transform="scale(1,-1)"><tspan
         sodipodi:role="line"
         id="tspan3951-0"
         style="font-style:normal;font-variant:normal;font-weight:normal;font-stretch:normal;font-size:8px;font-family:Arial;-inkscape-font-specification:Arial;stroke-width:0.75"
         x="362.99283"
         y="-361.9537">nucleobase</tspan></text><text
       xml:space="preserve"
       transform="matrix(0.75000002,0,0,-0.75000002,161.62602,366.74402)"
       id="text8458"
       style="font-weight:bold;font-size:26.6667px;line-height:1.25;font-family:'Fira Code';-inkscape-font-specification:'Fira Code, Bold';white-space:pre;shape-inside:url(#rect8460)" /><path
       d="m 212.3929,347.38324 h 1.85828 c 0.80883,0 1.46174,-0.65127 1.46174,-1.46043 v -56.15419 c 0,-0.81051 -0.65291,-1.46217 -1.46174,-1.46217 h -1.85828 c -0.80883,0 -1.46174,0.65166 -1.46174,1.46217 v 56.15419 c 0,0.80916 0.65291,1.46043 1.46174,1.46043 z"
       style="fill:none;stroke:#000000;stroke-width:0.395576;stroke-linecap:butt;stroke-linejoin:miter;stroke-miterlimit:4;stroke-dasharray:none;stroke-opacity:1"
       id="path990" /><path
       d="m 370.97465,360.13417 -24.03979,-20.1289"
       style="fill:none;stroke:#000000;stroke-width:0.356727;stroke-linecap:butt;stroke-linejoin:miter;stroke-miterlimit:4;stroke-dasharray:none;stroke-opacity:1"
       id="path1218" /><path
       d="m 241.9711,358.59168 12.37507,-15.38095"
       style="fill:none;stroke:#000000;stroke-width:0.202166;stroke-linecap:butt;stroke-linejoin:miter;stroke-miterlimit:4;stroke-dasharray:none;stroke-opacity:1"
       id="path1192" /><path
       d="m 366.81231,347.40129 h 1.03107 c 0.81047,0 1.46305,-0.65291 1.46305,-1.46305 v -56.18666 c 0,-0.80886 -0.65258,-1.46164 -1.46305,-1.46164 h -1.03107 c -0.81014,0 -1.46305,0.65278 -1.46305,1.46164 v 56.18666 c 0,0.81014 0.65291,1.46305 1.46305,1.46305 z"
       style="fill:#7c7ce3;fill-opacity:1;fill-rule:evenodd;stroke:none;stroke-width:0.032826"
       id="path1036" /><path
       d="m 366.81231,347.40129 h 1.03107 c 0.81047,0 1.46305,-0.65258 1.46305,-1.46305 v -56.18639 c 0,-0.80913 -0.65258,-1.46168 -1.46305,-1.46168 h -1.03107 c -0.81014,0 -1.46305,0.65255 -1.46305,1.46168 v 56.18639 c 0,0.81047 0.65291,1.46305 1.46305,1.46305 z"
       style="fill:none;stroke:#000000;stroke-width:0.359963;stroke-linecap:butt;stroke-linejoin:miter;stroke-miterlimit:4;stroke-dasharray:none;stroke-opacity:1"
       id="path1038" /><path
       d="m 365.73135,306.39177 h 3.03641 v -0.41029 h -1.27201 v -3.18015 h -0.48714 v 3.18015 h -1.27726 z"
       style="fill:#000000;fill-opacity:1;fill-rule:nonzero;stroke:none;stroke-width:0.032826"
       id="path1120" /><path
       d="m 367.32801,346.39058 c -1.25428,0 -2.26335,-0.74613 -2.26335,-1.67314 v -28.46901 c 0.73727,0.3926 1.49522,0.59251 2.25678,0.59777 0.76682,-0.008 1.52838,-0.21436 2.26959,-0.61319 v 28.48443 c 0,0.92701 -1.01038,1.67314 -2.26302,1.67314 z"
       style="fill:#00ceff;fill-opacity:1;fill-rule:evenodd;stroke:none;stroke-width:0.032826"
       id="path1040" /><path
       d="m 367.32801,346.39091 c -1.25428,0 -2.26335,-0.74646 -2.26335,-1.67347 v -28.46901 c 0.73727,0.3926 1.49522,0.59251 2.25678,0.59777 0.76682,-0.008 1.52838,-0.21436 2.26959,-0.61287 v 28.48411 c 0,0.92701 -1.01038,1.67347 -2.26302,1.67347 z"
       style="fill:none;stroke:#000000;stroke-width:0.391322;stroke-linecap:butt;stroke-linejoin:miter;stroke-miterlimit:4;stroke-dasharray:none;stroke-opacity:1"
       id="path1042" /><path
       d="m 367.25218,330.07015 -0.65652,-1.79 h 1.31829 z m -0.2718,0.47696 h 0.54885 l 1.3695,-3.59051 h -0.50781 l -0.32301,0.9234 h -1.62095 l -0.32826,-0.9234 h -0.50782 z"
       style="fill:#000000;fill-opacity:1;fill-rule:nonzero;stroke:none;stroke-width:0.032826"
       id="path1110" /><path
       d="m 331.14752,274.80293 c 2.42223,1.6095 5.48555,6.60008 8.45795,13.77808 1.08326,2.61849 4.57233,12.48412 7.75383,21.92287 3.18248,9.44011 6.59441,19.1996 7.58576,21.68716 3.48251,8.75141 7.15377,14.76382 9.87078,16.17041 0.67588,0.34894 2.08904,0.51931 4.30841,0.51931 h 3.30197 l -1.65673,-1.71942 c -4.21749,-4.37505 -6.89084,-10.60182 -15.30775,-35.65987 -7.41277,-22.06495 -9.99256,-28.35471 -13.68155,-33.35811 -2.39794,-3.2517 -3.52781,-3.8082 -8.01184,-3.94541 l -3.70442,-0.11284 z"
       style="fill:#c8b7b7;fill-opacity:1;fill-rule:nonzero;stroke:none;stroke-width:0.032826"
       id="path1076" /><path
       d="m 331.14752,274.80318 c 2.42223,1.60912 5.48555,6.5997 8.45795,13.77783 1.08326,2.61849 4.57233,12.48438 7.75383,21.92287 3.18248,9.44011 6.59441,19.1996 7.58576,21.68716 3.48251,8.75141 7.15377,14.76382 9.87078,16.17074 0.67588,0.34861 2.08904,0.51931 4.30841,0.51931 h 3.30197 l -1.65673,-1.71975 c -4.21749,-4.37505 -6.89084,-10.60149 -15.30775,-35.65955 -7.41277,-22.0654 -9.99256,-28.3549 -13.68155,-33.35856 -2.39794,-3.2517 -3.52781,-3.80807 -8.01184,-3.94528 l -3.70442,-0.11296 z"
       style="fill:none;stroke:#000000;stroke-width:0.35263;stroke-linecap:butt;stroke-linejoin:miter;stroke-miterlimit:4;stroke-dasharray:none;stroke-opacity:1"
       id="path1078" /><path
       d="m 213.32155,347.38324 c -1.32355,0 -2.39039,-0.65127 -2.39039,-1.46043 v -24.781 h 4.78176 v 24.781 c 0,0.80916 -1.06684,1.46043 -2.39137,1.46043 z"
       style="fill:none;stroke:#000000;stroke-width:0.395576;stroke-linecap:butt;stroke-linejoin:miter;stroke-miterlimit:4;stroke-dasharray:none;stroke-opacity:1"
       id="path994" /><path
       d="m 192.71539,312.18359 c 0,0.18087 1.25392,3.97786 2.78755,8.43628 5.45863,15.86547 8.28594,21.98062 11.98411,25.90924 1.93378,2.05425 2.75181,2.35165 6.46509,2.35165 h 3.28916 l -1.94921,-2.049 c -3.494,-3.67356 -6.99062,-11.33252 -12.2198,-26.77485 l -2.7761,-8.19501 -3.79042,-0.004 c -2.11563,-0.003 -3.79038,0.14246 -3.79038,0.32563 z"
       style="fill:#c8b7b7;fill-opacity:1;fill-rule:nonzero;stroke:none;stroke-width:0.032826"
       id="path1060" /></g></svg>
